<svg width="32" height="32" fill="none" xmlns="http://www.w3.org/2000/svg"><path fill="#D1D1D1" d="M0 0h32v32H0z"/><g id="UI Kit"><path transform="translate(-56 -1245)" fill="#fff" d="M0 0h1700v1433H0z"/><g id="Favicon" clip-path="url('#clip0_0_1')"><path id="Vector" d="M-.008 14.743c.052-1.807.692-3.387 1.64-4.846a18.976 18.976 0 0 1 3.865-4.21 45.01 45.01 0 0 1 6.627-4.57A8.472 8.472 0 0 1 15.712.004c.341-.026.562.1.625.367.062.267-.034.512-.334.68A58.347 58.347 0 0 0 8.56 5.98C7.02 7.198 5.541 8.49 4.326 10.07c-.49.637-.928 1.318-1.306 2.034-.894 1.694-.871 3.396.019 5.11a31.284 31.284 0 0 0 3.375 5.08c1.307 1.635 2.67 3.223 4.297 4.512a23.16 23.16 0 0 0 2.794 1.875c1.757 1.016 3.5.824 5.195-.234a32.273 32.273 0 0 0 4.742-3.699 56.106 56.106 0 0 0 4.443-4.588 4.203 4.203 0 0 0 1.085-2.196 3.54 3.54 0 0 0-.314-2.01 19.6 19.6 0 0 0-1.159-2.124c-1.269-1.977-2.575-3.932-4.117-5.68-.834-.953-1.703-1.87-2.763-2.554-.807-.52-1.667-.89-2.638-.811a4.57 4.57 0 0 0-2.15.808c-2.66 1.748-5.079 3.806-7.085 6.35a10.215 10.215 0 0 0-1.525 2.506 1.034 1.034 0 0 0-.013.83c.088.235.188.465.3.688a21.738 21.738 0 0 0 6.472 7.193c.098.07.208.122.3.19.717.516 1.459.522 2.257.203a9.931 9.931 0 0 0 2.407-1.418 17.215 17.215 0 0 0 3.485-3.579c.16-.233.308-.477.44-.73a1.975 1.975 0 0 0 .023-1.923 5.167 5.167 0 0 0-.44-.757 17.727 17.727 0 0 0-3.421-3.61 8.266 8.266 0 0 0-1.169-.694 1.173 1.173 0 0 0-1.171.045c-.767.423-1.483.94-2.134 1.54a12.347 12.347 0 0 0-2.06 2.31 1.088 1.088 0 0 0-.054 1.291 10.402 10.402 0 0 0 2.618 3.06.601.601 0 0 0 .709.083 6.473 6.473 0 0 0 1.944-1.447c.26-.288.296-.437.104-.793a8.925 8.925 0 0 0-.577-.848c-.277-.393-.569-.773-.833-1.175a.648.648 0 0 1 .025-.78.635.635 0 0 1 .327-.234.608.608 0 0 1 .396.015c.195.043.383.117.558.219 1.042.655 1.757 1.568 2.009 2.829a1.938 1.938 0 0 1-.242 1.483c-.895 1.378-2.234 2.37-3.771 2.793-.42.099-.86.027-1.23-.201a7.168 7.168 0 0 1-1.771-1.392 11.026 11.026 0 0 1-2.171-2.947 2.803 2.803 0 0 1 .056-2.742 11.942 11.942 0 0 1 2.025-2.61 15.159 15.159 0 0 1 2.895-2.309c1.148-.697 2.292-.705 3.484-.126.904.453 1.739 1.045 2.477 1.756a19.14 19.14 0 0 1 3.013 3.496 4.9 4.9 0 0 1 .87 2.84 4.705 4.705 0 0 1-.626 2.155 14.231 14.231 0 0 1-2.43 3.109 16.148 16.148 0 0 1-4.052 3.113 6.75 6.75 0 0 1-2.745.809 3.42 3.42 0 0 1-1.642-.383 12.866 12.866 0 0 1-3.142-2.209c-1.909-1.723-3.603-3.648-4.907-5.923a6.513 6.513 0 0 1-.875-2.263 2.947 2.947 0 0 1 .14-1.49c.479-1.292 1.25-2.378 2.127-3.393 2.071-2.42 4.49-4.412 7.028-6.256a8.425 8.425 0 0 1 2.91-1.47c1.564-.387 3.023-.04 4.419.714a14.52 14.52 0 0 1 3.252 2.543c2.311 2.286 4.195 4.932 5.868 7.746a7.417 7.417 0 0 1 1.042 3.48 6.125 6.125 0 0 1-1.202 4.005 24.353 24.353 0 0 1-1.759 2.072 45.304 45.304 0 0 1-7.36 6.532c-1.062.739-2.152 1.425-3.394 1.8a6.924 6.924 0 0 1-5.407-.554 19.778 19.778 0 0 1-4.945-3.693 40.687 40.687 0 0 1-5.934-7.664c-.659-1.112-1.25-2.264-1.526-3.56-.1-.485-.133-.983-.204-1.474Z" fill="#727D57"/></g></g><defs><clipPath id="clip0_0_1"><path fill="#fff" d="M0 0h32v32H0z"/></clipPath></defs></svg>