<svg aria-hidden="true" style="width:0;height:0;position:absolute;overflow:hidden" xmlns="http://www.w3.org/2000/svg"><defs><symbol id="icon-arrowD" viewBox="0 0 32 32"><path fill="none" stroke="#727d57" style="stroke:var(--color1,#727d57)" stroke-linecap="round" stroke-width="3.2" d="m1.6 8.8 14.131 14.131L29.862 8.8"/></symbol><symbol id="icon-arrowL" viewBox="0 0 33 32"><path fill="#727d57" style="fill:var(--color1,#727d57)" d="M24.727 25.113V5.879a1.072 1.072 0 0 0-1.677-.88L9.159 14.616c-.576.399-.576 1.358 0 1.758l13.891 9.617a1.07 1.07 0 0 0 1.677-.879z"/></symbol><symbol id="icon-arrowR" viewBox="0 0 33 32"><path fill="#727d57" style="fill:var(--color1,#727d57)" d="M8.727 6.16v19.234a1.072 1.072 0 0 0 1.677.88l13.891-9.617c.576-.399.576-1.358 0-1.758L10.404 5.282a1.07 1.07 0 0 0-1.677.879z"/></symbol><symbol id="icon-arrowU" viewBox="0 0 29 32"><path fill="#474745" style="fill:var(--color2,#474745)" opacity=".3" d="M29.061 17.329c0 7.935-6.432 14.367-14.367 14.367S.327 25.264.327 17.329c0-7.935 6.432-14.367 14.367-14.367s14.367 6.432 14.367 14.367z"/><path stroke-width=".653" d="M21.154 21.002c.078.078.169.14.27.181a.774.774 0 0 0 .884-.216c.074-.083.131-.181.169-.287a.926.926 0 0 0-.018-.666.882.882 0 0 0-.184-.277l-7.343-7.394c-.152-.153-.352-.238-.561-.238s-.409.085-.56.238l-7.343 7.394c-.08.078-.144.172-.189.277a.927.927 0 0 0-.022.671.88.88 0 0 0 .17.29c.074.084.163.151.262.198a.778.778 0 0 0 .899-.17l6.784-6.831 6.782 6.831z"/></symbol><symbol id="icon-book" viewBox="0 0 40 32"><path d="M23.437 1.373h14.856V25.94H23.437V1.373zm-1.253 28.524-1.95-1.6c-.161-.131-.473-.13-.633 0l-1.97 1.606V1.373h4.553v28.524zm-5.807-3.957H1.295V1.373h15.082V25.94zM21.936 0H.666C.328 0 .039.315.039.686v25.94c0 .371.288.686.627.686h15.71v3.952c0 .476.549.914.944.593l1.328-1.083.977-.796c.083-.067.205-.143.309-.215.063.043.125.088.17.134.284.286.633.519.943.773l1.447 1.187c.268.221.534.14.705-.063a.644.644 0 0 0 .238-.53v-3.952H38.92a.553.553 0 0 0 .423-.183l.021-.023.012-.013a.67.67 0 0 0 .17-.467V.686c0-.371-.287-.686-.626-.686H21.936z"/><path d="M4.142 7.822h8.86c.538 0 .539-.915 0-.915h-8.86c-.538 0-.539.915 0 .915zM4.142 11.671h8.86c.538 0 .539-.915 0-.915h-8.86c-.538 0-.539.915 0 .915zM4.142 15.52h8.86c.538 0 .539-.915 0-.915h-8.86c-.538 0-.539.915 0 .915zM4.142 19.368h8.86c.538 0 .539-.915 0-.915h-8.86c-.538 0-.539.915 0 .915zM35.487 6.906h-8.861c-.537 0-.538.915 0 .915h8.861c.536 0 .538-.915 0-.915zM35.487 10.756h-8.861c-.537 0-.538.915 0 .915h8.861c.536 0 .538-.915 0-.915zM35.487 14.605h-8.861c-.537 0-.538.915 0 .915h8.861c.536 0 .538-.915 0-.915zM35.487 18.453h-8.861c-.537 0-.538.915 0 .915h8.861c.536 0 .538-.915 0-.915z"/></symbol><symbol id="icon-burger" viewBox="0 0 32 32"><path fill="#727d57" style="fill:var(--color1,#727d57)" d="M4 24h24v-2.667H4V24zm0-6.667h24v-2.667H4v2.667zM4 8v2.667h24V8H4z"/></symbol><symbol id="icon-check" viewBox="0 0 32 32"><path fill="#4caf50" style="fill:var(--color4,#4caf50)" d="M16 30c7.732 0 14-6.268 14-14S23.732 2 16 2 2 8.268 2 16s6.268 14 14 14z"/><path fill="#fff" style="fill:var(--color3,#fff)" d="M23.067 9.734 14 18.801l-3.733-3.733L8.4 16.935l5.6 5.6 10.933-10.933-1.867-1.867z"/></symbol><symbol id="icon-community" viewBox="0 0 32 32"><path d="M21.304 23.601c.617-1.345 1.714-2.761 2.605-3.186 4.251-1.699 8.09.566 8.09 4.814-.069 6.938-8.227 9.415-10.696 3.256-.823-2.053-.823-2.761 0-4.885zM4.53 20.22c-6.308 2.478-5.074 11.539 1.508 11.539 5.005 0 7.679-6.442 4.114-10.053-1.303-1.345-4.114-2.124-5.622-1.487zM20.948 6.409c0-3.681.343-4.46 2.4-5.663 2.125-1.203 3.497-.991 5.691.92 4.662 4.035 2.605 10.194-3.428 10.265-3.428 0-4.662-1.487-4.662-5.522zm-20.596.87C-.676 5.014.626 2.182 3.232.837 5.426-.296 6.317-.296 8.648.979c4.731 2.478 3.291 10.477-1.851 10.477-2.605 0-5.416-1.841-6.445-4.177z"/></symbol><symbol id="icon-earth" viewBox="0 0 32 32"><path d="M28.688 24.04c-.263-.891-.441-1.603-.459-1.772a6.393 6.393 0 0 0-.094-.74c-.066-.375.103-.863.272-1.369.281-.816.591-1.735.216-2.747-.253-.647-.609-1.022-.9-1.331-.328-.356-.413-.431-.337-.938.094-.647.375-.891.872-1.341v-.009c.066-.056.141-.122.206-.188.103-.094.206-.188.309-.3a5.014 5.014 0 0 0 .535-.647c.825-1.2.478-2.203.206-2.7-.281-.488-.722-.9-1.247-1.238-1.116-.731-2.616-1.088-3.591-1.041-1.444.075-2.081.919-2.503 1.481-.216.3-.356.469-.525.553a.888.888 0 0 0-.141-.019c-.347-.056-.984-.15-1.688.366-.572.413-1.013 1.134-1.238 1.669-.263.609-.356 1.163-.441 1.659-.122.741-.206 1.228-.75 1.725-.75.694-1.153.628-2.138.45-.403-.075-.853-.159-1.388-.178-2.26-.122-5.091.788-5.654 3.713-.319 1.66.253 3.056 1.584 3.919.188.132.394.253.619.356.197.094.384.178.563.263.413.178.759.337 1.059.534.197.131.375.291.544.478.178.215.328.403.469.572.328.431.638.816 1.153 1.135.309.206.694.384 1.228.534.572.159 1.153.45 1.706.806 1.059.703 2.044 1.688 2.775 2.653a14.55 14.55 0 0 1-3.657.459c-2.025 0-3.985-.403-5.832-1.2.019-.122.037-.244.047-.365.009-.01.009-.019.009-.019l.028-.394v-.131c.009-.094.009-.178.009-.272 0-.056 0-.103-.009-.159 0-.084 0-.168-.009-.253 0-.056-.009-.103-.009-.159a2.208 2.208 0 0 0-.038-.253.788.788 0 0 0-.019-.16 2.7 2.7 0 0 0-.047-.281l-.028-.141c-.028-.131-.066-.272-.103-.412-.394-1.444-1.21-1.875-1.941-2.25-.309-.159-.609-.319-.928-.581-.525-.45-.487-.778-.112-1.884.122-.347.253-.713.328-1.106.338-1.669-.309-3.863-1.566-5.344-.675-.797-.994-1.528-.863-1.969.009-.028.019-.066.038-.094a.776.776 0 0 1 .234-.272c.103-.084.244-.178.412-.253.056-.028.112-.056.169-.075.328-.131.863-.225 1.378-.319 1.509-.272 4.031-.713 3.872-3.056-.047-.778-.506-1.266-.844-1.613-.159-.169-.3-.319-.338-.431-.075-.234-.047-.544-.019-.909.028-.375.066-.797-.009-1.247-.019-.131-.047-.263-.066-.384l-.028-.112c-.028-.075-.047-.15-.066-.225-.009-.037-.028-.075-.038-.112-.019-.066-.047-.131-.066-.188-.019-.037-.028-.075-.047-.103a3.023 3.023 0 0 0-.084-.178c-.009-.019-.019-.047-.038-.075-.047-.075-.084-.141-.141-.206 0-.009-.009-.019-.019-.028-.047-.056-.084-.103-.131-.15l-.056-.056a.6.6 0 0 0-.122-.094c-.019-.019-.037-.038-.066-.056-.037-.028-.084-.047-.122-.075-.019-.009-.028-.019-.047-.028a15.85 15.85 0 0 1 2.138-1.003c.028.019.056.028.084.038.544.188.872.713 1.284 1.388.403.647.863 1.388 1.631 1.931.75.525 1.472.788 2.203.788.825 0 1.509-.319 2.175-.619l-.244-.544.272.534a9.467 9.467 0 0 1 1.088-.441c1.481-.459 2.738-.084 4.332.403.413.131.788.244 1.181.347.084.028.169.037.253.056.028 0 .056.009.084.009.056.009.113.019.169.019h.103c.056.009.113.009.159.009h.113c.047-.009.103-.009.159-.009.038 0 .075-.009.112-.009a.77.77 0 0 0 .15-.019c.038 0 .075 0 .113-.009.056-.009.112-.009.159-.019.038-.009.075-.009.122-.019s.103-.019.159-.028a.446.446 0 0 0 .113-.019h.047a14.726 14.726 0 0 1 3.966 10.088c0 2.888-.816 5.635-2.372 8.035zm-1.153 1.66a14.771 14.771 0 0 1-6.113 4.247l-.225.084c-1.181-1.669-3.216-3.666-5.447-4.294-.956-.263-1.219-.6-1.697-1.209a14.5 14.5 0 0 0-.516-.619c-.628-.722-1.294-1.022-2.072-1.369l-.544-.244c-1.219-.581-1.725-1.594-1.472-2.925.394-2.053 2.391-2.756 4.116-2.756h.309c.45.028.863.103 1.238.169 1.05.188 1.969.347 3.16-.75.834-.769.975-1.603 1.116-2.4.075-.469.159-.919.356-1.397.159-.384.497-.919.844-1.172.309-.225.525-.188.806-.15.206.037.45.075.722-.028.516-.206.797-.591 1.078-.966.375-.488.722-.956 1.603-1.003 1.069-.047 3.075.572 3.666 1.631.253.45.216.919-.141 1.434-.263.384-.572.656-.863.928h-.009c-.534.488-1.088.984-1.247 2.053-.159 1.078.253 1.519.656 1.941.244.263.478.506.638.928.234.609.009 1.256-.216 1.941-.216.628-.441 1.284-.319 1.969.038.188.056.403.075.637.047.431.469 1.894.806 2.963-.103.122-.206.244-.309.356zM9.29 29.075c-.028-.019-.056-.028-.084-.047a14.812 14.812 0 0 1-7.757-13.023A14.783 14.783 0 0 1 7.538 4.042c.872.028 1.144.066 1.359 1.359.047.3.019.609-.009.947-.037.45-.084.919.075 1.388.122.375.366.628.609.881.309.319.497.544.516.863.075 1.181-1.2 1.5-2.888 1.8l-.45.084c-.431.084-.844.178-1.172.309-.844.338-1.35.816-1.547 1.453-.337 1.097.413 2.278 1.088 3.085 1.003 1.191 1.575 3.047 1.313 4.341-.066.309-.178.638-.281.956-.347 1.013-.75 2.166.478 3.178.412.356.797.553 1.144.731.188.103.375.197.534.309.356.234.619.553.797 1.191.206.74.263 1.453.188 2.156zm6.966-27.88a14.8 14.8 0 0 1 9.732 3.653c-.225.009-.422 0-.591-.047-.384-.103-.75-.216-1.153-.338-1.65-.497-3.206-.975-5.035-.403-.45.141-.844.319-1.219.488l-.028.019c-.45.206-.863.384-1.266.469a3.164 3.164 0 0 1-.422.037c-.478 0-.975-.188-1.51-.563-.572-.403-.928-.975-1.313-1.594-.281-.459-.553-.9-.909-1.247a14.676 14.676 0 0 1 3.713-.474zm10.576 2.809A15.95 15.95 0 0 0 16.256 0c-1.36 0-2.719.172-4.022.511-.412.107-.834.235-1.275.392h-.009a15.99 15.99 0 0 0-3.938 2.042c-.319.225-.628.469-.928.703A15.968 15.968 0 0 0 .253 16.005c0 5.879 3.215 11.27 8.381 14.073.253.132.534.272.853.422a15.751 15.751 0 0 0 6.769 1.5 15.97 15.97 0 0 0 4.613-.675c.028.009.056.009.084.009a.58.58 0 0 0 .178-.028c.234-.075.469-.15.703-.234a16.151 16.151 0 0 0 6.61-4.585c.188-.225.366-.441.534-.665a.632.632 0 0 0 .122-.281 15.86 15.86 0 0 0 3.16-9.535 15.913 15.913 0 0 0-5.429-12.001z"/><path d="M20.946 25.934c-1.378-1.013-4.294-3.535-4.294-5.382 0-.891.488-1.547 1.303-1.763.169-.047.366-.066.563-.066.741 0 1.584.347 2.091 1.228l.347.609.347-.619c.572-1.041 1.753-1.36 2.625-1.134.394.103 1.313.478 1.313 1.744 0 1.838-2.906 4.369-4.294 5.382zm3.178-7.903a3.142 3.142 0 0 0-3.178 1.022c-.788-.919-2.025-1.341-3.197-1.031-1.163.309-1.894 1.284-1.894 2.531 0 2.766 4.669 6.066 4.866 6.207l.225.159.234-.159c.197-.141 4.857-3.441 4.857-6.207 0-1.247-.731-2.213-1.913-2.522z"/></symbol><symbol id="icon-facebook" viewBox="0 0 32 32"><path fill="none" stroke="#727d57" style="stroke:var(--color1,#727d57)" stroke-width="1.391" d="M16 31.304A15.308 15.308 0 0 1 .695 15.999 15.308 15.308 0 0 1 16 .694a15.307 15.307 0 0 1 10.822 26.127A15.305 15.305 0 0 1 16 31.304zm0 0V13.813a4.373 4.373 0 0 1 4.373-4.373h1.093m-10.932 8.746h10.932"/></symbol><symbol id="icon-instagram" viewBox="0 0 33 32"><path fill="none" stroke="#727d57" style="stroke:var(--color1,#727d57)" stroke-linejoin="round" stroke-linecap="round" stroke-width="1.304" d="M16.345 22.802a6.8 6.8 0 0 0 4.81-11.612 6.8 6.8 0 0 0-9.62 0 6.8 6.8 0 0 0 0 9.62 6.8 6.8 0 0 0 4.81 1.992z"/><path fill="none" stroke="#727d57" style="stroke:var(--color1,#727d57)" stroke-width="1.304" d="M1.043 22.802V9.198A8.503 8.503 0 0 1 9.545.696h13.604a8.503 8.503 0 0 1 8.502 8.502v13.604a8.503 8.503 0 0 1-8.502 8.502H9.545a8.503 8.503 0 0 1-8.502-8.502z"/><path fill="none" stroke="#727d57" style="stroke:var(--color1,#727d57)" stroke-linejoin="round" stroke-linecap="round" stroke-width="1.304" d="m25.701 6.663.017-.019"/></symbol><symbol id="icon-location" viewBox="0 0 32 32"><path fill="#727d57" style="fill:var(--color1,#727d57)" d="M16.002 2.527a10.808 10.808 0 0 1 10.805 10.805c0 4.566-3.208 9.542-9.542 14.981a1.938 1.938 0 0 1-2.53-.003l-.419-.364c-6.053-5.297-9.12-10.151-9.12-14.615A10.808 10.808 0 0 1 16.001 2.526zm0 1.662a9.142 9.142 0 0 0-9.143 9.143c0 3.881 2.824 8.353 8.549 13.362l.413.358a.277.277 0 0 0 .362 0c6.002-5.155 8.962-9.747 8.962-13.72a9.132 9.132 0 0 0-2.678-6.465 9.154 9.154 0 0 0-6.465-2.678zm0 4.987a4.152 4.152 0 0 1 4.156 4.156 4.152 4.152 0 0 1-4.156 4.156 4.152 4.152 0 0 1-4.156-4.156 4.152 4.152 0 0 1 4.156-4.156zm0 1.662a2.495 2.495 0 0 0-2.493 2.493 2.495 2.495 0 0 0 2.493 2.493 2.495 2.495 0 0 0 2.493-2.493 2.495 2.495 0 0 0-2.493-2.493z"/></symbol><symbol id="icon-mail" viewBox="0 0 32 32"><path fill="none" stroke="#727d57" style="stroke:var(--color1,#727d57)" stroke-linejoin="round" stroke-linecap="round" stroke-width=".97" d="M3.757 7.822c.242-.242.571-.379.914-.379v-.019h22.665c.343 0 .672.136.914.379m-24.493.019a1.294 1.294 0 0 0-.379.914v14.617a1.295 1.295 0 0 0 1.293 1.293h22.665a1.295 1.295 0 0 0 1.293-1.293V8.717a1.29 1.29 0 0 0-.379-.914m-24.493.019 12.247 9.551 12.247-9.57"/></symbol><symbol id="icon-paints" viewBox="0 0 36 32"><path d="M9.731 13.672c.063-.129.239-.435.519-.544.203-.069.461-.03.766.119l.127.069c.094.049.189.099.286.139l.881.445-.033-.119a6.129 6.129 0 0 0 6.106-1.533 6.114 6.114 0 0 0 1.271-6.836l.049-.079-.246-.317a1.043 1.043 0 0 0-.066-.109l-.025-.04c-.19-.366-.26-.712-.182-.91.055-.129.204-.247.444-.326a12.39 12.39 0 0 1 2.031-.228 12.408 12.408 0 0 1 9.319 3.66 12.487 12.487 0 0 1 3.683 8.894c0 3.354-1.308 6.51-3.683 8.884a12.44 12.44 0 0 1-9.32 3.68 12.524 12.524 0 0 1-8.465-3.68 12.558 12.558 0 0 1-3.464-11.169zm2.551 12.089a13.81 13.81 0 0 0 9.334 4.046c.155.01.31.01.463.01 3.665 0 7.219-1.464 9.813-4.056a13.782 13.782 0 0 0 4.062-9.804c0-3.71-1.442-7.192-4.062-9.804-2.737-2.74-6.387-4.175-10.276-4.046-.779.03-1.545.119-2.281.267l-.075.02c-.793.257-1.129.732-1.27 1.078-.306.762.017 1.573.248 2.018l.049.079c.02.03.038.059.054.089l.019.049.015.02a4.828 4.828 0 0 1-.903 5.609 4.862 4.862 0 0 1-5.844.772l-.969-.554v.257c-.295-.03-.581.01-.853.109-.811.297-1.192 1.068-1.29 1.306l-.04.129a13.866 13.866 0 0 0 3.805 12.406z"/><path d="M12.535 20.3a2.27 2.27 0 0 1-.831-3.106 2.27 2.27 0 0 1 1.378-1.059 2.286 2.286 0 0 1 2.782 1.613c.157.584.077 1.197-.227 1.721s-.792.9-1.38 1.059a2.234 2.234 0 0 1-1.722-.228zm1.891.851a2.915 2.915 0 0 0 2.063-3.571 2.91 2.91 0 0 0-3.572-2.058 2.893 2.893 0 0 0-1.772 1.355 2.92 2.92 0 0 0 1.069 3.987 2.915 2.915 0 0 0 2.212.287zM17.243 23.664a2.28 2.28 0 0 1 2.782-1.613 2.277 2.277 0 0 1 1.607 2.79c-.11.406-.333.772-.646 1.069a2.284 2.284 0 0 1-2.136.534 2.259 2.259 0 0 1-1.379-1.059 2.244 2.244 0 0 1-.228-1.721zm-.332 2.038a2.862 2.862 0 0 0 1.771 1.365 2.906 2.906 0 0 0 2.744-.692c.401-.366.688-.841.829-1.375a2.9 2.9 0 0 0-.829-2.879 2.982 2.982 0 0 0-1.234-.692 2.922 2.922 0 0 0-3.571 2.068 2.875 2.875 0 0 0 .291 2.206zM29.03 24.07c-.429.425-1 .663-1.607.663s-1.177-.237-1.606-.663a2.278 2.278 0 0 1 0-3.215c.428-.425.998-.663 1.606-.663a2.268 2.268 0 0 1 2.271 2.266c0 .613-.236 1.177-.664 1.613zm-1.607-4.521c-.78 0-1.512.297-2.062.851a2.919 2.919 0 0 0 0 4.125 2.925 2.925 0 0 0 4.125 0c.55-.554.854-1.286.854-2.068 0-.772-.304-1.504-.854-2.058a2.883 2.883 0 0 0-2.063-.851zM29.43 12.614a2.272 2.272 0 0 1 2.781 1.603c.158.584.077 1.197-.227 1.721s-.792.9-1.379 1.059c-1.208.326-2.457-.396-2.781-1.603s.396-2.463 1.606-2.78zm-2.229 2.948a2.924 2.924 0 0 0 3.572 2.058c.753-.198 1.382-.683 1.771-1.355s.493-1.464.291-2.216a2.91 2.91 0 0 0-3.571-2.058 2.92 2.92 0 0 0-2.062 3.571zM22.061 8.211a2.28 2.28 0 0 1 2.782-1.613 2.282 2.282 0 0 1 1.607 2.79c-.157.584-.533 1.068-1.059 1.375s-1.138.386-1.722.228a2.267 2.267 0 0 1-1.607-2.779zm1.44 3.403c.252.069.506.099.76.099.506 0 1.004-.129 1.453-.396a2.863 2.863 0 0 0 1.359-1.771 2.923 2.923 0 0 0-2.064-3.571 2.923 2.923 0 0 0-3.279 4.284 2.881 2.881 0 0 0 1.771 1.355zM5.916 5.035c.157.564.397 1.425.22 1.712-.02.04-.048.069-.129.089-.429.089-.826-.979-1.118-1.761-.344-.92-.617-1.652-1.168-1.652-.011 0-.022 0-.032.01-.557.02-.761.574-.925 1.019-.22.594-.365.88-.747.861-.291-.01-.523-.158-.709-.465.685-1.771 2.213-3.166 2.753-3.621.384.326 1.261 1.108 1.984 2.176a.444.444 0 0 0-.199.119c-.273.277-.137.762.07 1.514zm.772 2.048c.086-.139.128-.307.142-.495-.007 2.523-.931 2.988-2.77 2.988-1.837 0-2.769-.465-2.769-3.007 0-.267.029-.524.079-.782.189.099.399.158.626.168.888.03 1.18-.762 1.373-1.286.103-.277.22-.594.321-.604.162.079.422.772.595 1.237.386 1.029.819 2.186 1.653 2.186.064 0 .133-.01.202-.02a.859.859 0 0 0 .548-.386zM5.345 19.44c-.209 3.354-.585 9.418-1.245 10.694-.704-1.454-1.154-7.796-1.353-10.625-.193-2.73-.091-5.619.289-8.152.027-.178.056-.356.088-.544.319.04.642.049.959.049h.004c.303 0 .612-.01.919-.049.025.158.046.307.068.475l.076.554h.003c.28 2.394.348 5.075.192 7.598zM4.472.316l-.206.247-.009-.01.195-.247-.39-.307-.39.297C3.522.415 0 3.106 0 6.568c0 2.325.808 3.413 1.873 3.908-.042.237-.08.465-.113.693-.393 2.622-.5 5.609-.301 8.429.667 9.398 1.192 11.872 2.554 12.03l.716.079v-.336c1.047-.752 1.41-3.888 1.903-11.852.174-2.81.078-5.787-.271-8.409l-.083-.554h-.006c-.005-.03-.009-.059-.014-.079C7.314 9.982 8.12 8.894 8.12 6.569 8.12 3.235 4.85.613 4.47.317z"/></symbol><symbol id="icon-people" viewBox="0 0 48 32"><path d="M33.241 26.342c-.42-1.69-1.159-3.586-2.458-5.196.687-1.5 1.48-2.537 1.967-3.09 4.325 3.016 8.737.921 10.319-.032 2.459 2.64 2.931 6.628 3.018 8.316l-12.847.003zm-17.727 3.694c.293-4.447 2.33-7.234 3.26-8.286 4.325 3.016 8.737.92 10.319-.032 2.459 2.64 2.931 6.627 3.017 8.316l-16.596.003zm-1.03-3.696-12.797.003c.293-4.447 2.331-7.234 3.26-8.286 4.325 3.016 8.737.921 10.319-.032.848.911 1.457 1.983 1.897 3.065-.823 1.018-1.965 2.766-2.678 5.251zm33.274.853c.01-.284.18-6.986-4.022-10.835a.827.827 0 0 0-1.063-.046c-.047.037-4.936 3.709-9.485.004a.827.827 0 0 0-1.064.018c-.098.085-1.433 1.273-2.595 3.569a.832.832 0 0 0-.832.1c-.2.153-4.96 3.693-9.486.006a.823.823 0 0 0-.771-.145c-.584-1.254-1.39-2.482-2.51-3.506a.825.825 0 0 0-1.061-.046c-.049.037-4.936 3.709-9.485.004a.827.827 0 0 0-1.064.018C4.147 16.483.102 20.079 0 27.159a.826.826 0 0 0 .828.838l13.277-.003a17.667 17.667 0 0 0-.277 2.857.83.83 0 0 0 .828.838l18.299-.004a.827.827 0 0 0 .827-.798c.004-.116.033-1.285-.212-2.891l13.362-.003a.825.825 0 0 0 .826-.799z"/><path d="M42.148 12.186a6.124 6.124 0 0 1-4.359 1.811h-.003a6.18 6.18 0 0 1-6.172-6.169 6.129 6.129 0 0 1 1.808-4.363 6.13 6.13 0 0 1 4.363-1.811 6.181 6.181 0 0 1 6.173 6.169 6.133 6.133 0 0 1-1.811 4.363zm-13.977 3.693a6.124 6.124 0 0 1-4.359 1.809h-.003a6.18 6.18 0 0 1-6.172-6.168 6.127 6.127 0 0 1 1.808-4.363 6.132 6.132 0 0 1 4.363-1.812 6.182 6.182 0 0 1 6.173 6.17 6.134 6.134 0 0 1-1.811 4.363zm-13.828-3.693a6.126 6.126 0 0 1-4.359 1.811h-.003a6.18 6.18 0 0 1-6.172-6.169 6.129 6.129 0 0 1 1.808-4.363A6.13 6.13 0 0 1 9.98 1.654a6.181 6.181 0 0 1 6.173 6.169 6.133 6.133 0 0 1-1.811 4.363zM37.786 0a7.768 7.768 0 0 0-5.532 2.296 7.764 7.764 0 0 0-2.218 4.503c-1.431-1.883-3.686-3.107-6.227-3.107a7.77 7.77 0 0 0-6.103 2.939C17.127 2.882 13.888 0 9.982 0A7.768 7.768 0 0 0 4.45 2.296a7.768 7.768 0 0 0-2.292 5.531c.001 4.313 3.511 7.821 7.824 7.821h.003a7.766 7.766 0 0 0 6.101-2.938c.577 3.749 3.817 6.631 7.724 6.631h.003c2.087 0 4.05-.815 5.529-2.295a7.771 7.771 0 0 0 2.219-4.505 7.808 7.808 0 0 0 6.227 3.106h.003c2.087 0 4.05-.815 5.529-2.295a7.762 7.762 0 0 0 2.293-5.531c-.003-4.313-3.511-7.822-7.824-7.822z"/></symbol><symbol id="icon-phone" viewBox="0 0 32 32"><path fill="none" stroke="#727d57" style="stroke:var(--color1,#727d57)" stroke-linejoin="round" stroke-linecap="round" stroke-width=".97" d="M25.707 10.811a20.72 20.72 0 0 1-14.928 14.928c-2.768.705-5.12-1.676-5.12-4.533v-1.293c0-.714.581-1.287 1.29-1.358a12.855 12.855 0 0 0 3.434-.826l1.965 1.965a15.578 15.578 0 0 0 7.314-7.314l-1.965-1.965c.433-1.101.711-2.257.827-3.434.07-.711.643-1.29 1.356-1.29h1.293c2.857 0 5.238 2.352 4.533 5.12z"/></symbol><symbol id="icon-plant" viewBox="0 0 32 32"><path d="M4.547 29.932c0-1.548 3.815-4.79 6.41-5.527 3.281-.958 4.349-.958 8.852 0 4.807.958 4.807 2.211.153 5.38-2.518 1.769-4.044 2.211-7.249 2.211-4.96.074-8.165-.737-8.165-2.063zM9.899 1.916c-4.731 2.579-6.791 4.569-8.47 8.033-1.526 3.169-1.908 8.18-.763 9.875 1.755 2.579 10.378-3.685 12.743-9.212C14.554 8.033 14.859 0 13.943 0c-.382 0-2.137.884-4.044 1.916zm13.937 7.598c-3.129 1.4-6.105 5.232-5.189 6.706 1.374 2.211 9.538-.958 11.828-4.569.839-1.326 1.526-2.653 1.526-3.021 0-1.032-4.96-.442-8.165.884z"/></symbol><symbol id="icon-puzzle" viewBox="0 0 35 32"><path d="M31.522 10.419a2.675 2.675 0 0 0-.493-.745 2.684 2.684 0 0 0-1.944-.86 2.685 2.685 0 0 0-1.946.793 2.68 2.68 0 0 0-.948 1.877 2.681 2.681 0 0 0 .698 2.006c.201.222.441.409.704.552L25.8 15.675l-1.809-1.939a2.67 2.67 0 0 0 .954-.563 2.699 2.699 0 0 0 .796-2.682c-.265-1.02-1.098-1.786-2.227-2.051a1.48 1.48 0 0 0-.527-.024c-1.111.155-1.964.775-2.35 1.688l-1.756-1.925 2.082-1.943a.905.905 0 0 0 .21-.291.923.923 0 0 0 .069-.74.898.898 0 0 0-.533-.559 1.546 1.546 0 0 1-.601-.408 1.558 1.558 0 0 1 .06-2.178 1.58 1.58 0 0 1 2.191.103c.168.181.289.394.358.63a.913.913 0 0 0 1.256.569.896.896 0 0 0 .304-.182l2.108-1.921 1.778 1.905c-.943.311-1.63 1.112-1.874 2.208-.037.169-.044.35-.018.526.173 1.147.869 2.04 1.863 2.387a2.705 2.705 0 0 0 3.377-1.482l1.786 1.961-1.773 1.654zm.72-4.496a.588.588 0 0 0-.105-.161l-.034-.036a.91.91 0 0 0-.89-.262.926.926 0 0 0-.67.668 1.568 1.568 0 0 1-2.036 1.083c-.598-.208-1.004-.749-1.114-1.48a.37.37 0 0 1 .003-.115c.175-.784.663-1.306 1.34-1.43a.925.925 0 0 0 .713-.619.904.904 0 0 0-.198-.899L27.022.283a.905.905 0 0 0-.463-.266.559.559 0 0 0-.141-.015.924.924 0 0 0-.598.238l-2.123 1.935a2.658 2.658 0 0 0-.51-.782C22.194.328 20.5.249 19.397 1.231a2.69 2.69 0 0 0-.13 3.777c.214.235.461.426.739.572l-2.097 1.957a.68.68 0 0 0-.103.122.901.901 0 0 0-.186.461.564.564 0 0 0 .003.142.91.91 0 0 0 .23.481l2.199 2.414c.223.245.56.35.88.272a.923.923 0 0 0 .674-.662c.179-.665.739-1.109 1.533-1.219a.334.334 0 0 1 .114.005c.723.169 1.229.617 1.388 1.23a1.568 1.568 0 0 1-1.243 1.941.931.931 0 0 0-.722.613.912.912 0 0 0 .19.909l.034.036a.546.546 0 0 0 .152.118l2.106 2.257a.922.922 0 0 0 .561.285.82.82 0 0 0 .148-.002.91.91 0 0 0 .298-.099.878.878 0 0 0 .188-.13l2.302-2.098a.582.582 0 0 0 .077-.086.928.928 0 0 0 .138-.807.887.887 0 0 0-.541-.583 1.532 1.532 0 0 1-.6-.408c-.291-.32-.435-.732-.406-1.164s.23-.822.564-1.101l.042-.038c.304-.31.713-.468 1.142-.472a1.566 1.566 0 0 1 1.487 1.129c.077.27.272.485.537.587a.925.925 0 0 0 .816-.073.507.507 0 0 0 .091-.069l2.277-2.124a.915.915 0 0 0 .266-.459.523.523 0 0 0 .014-.153.914.914 0 0 0-.236-.582l-2.08-2.284zM2.713 27.316a1.594 1.594 0 0 1-1.396-.832c-.297-.558-.23-1.229.186-1.843a.317.317 0 0 1 .077-.078c.605-.423 1.273-.502 1.831-.217.286.145.62.131.892-.038a.91.91 0 0 0 .436-.787l-.014-2.375 3.026-.018a1.48 1.48 0 0 0 1.292-.774 1.498 1.498 0 0 0-.059-1.524 1.002 1.002 0 0 1 .135-1.244c.362-.363.932-.391 1.458-.049.188.283.416.791.103 1.286a1.479 1.479 0 0 0 1.25 2.28l2.663-.016.012 2.107c-.857-.301-1.839-.144-2.672.439-.14.098-.268.226-.367.372-.648.957-.741 2.082-.251 3.009a2.71 2.71 0 0 0 3.321 1.276l.014 2.436a.49.49 0 0 0-.062.082l-9.805.058-.017-2.917a.917.917 0 0 0-.45-.786.895.895 0 0 0-.883-.025 1.562 1.562 0 0 1-.72.181zm2.822-9.655A2.702 2.702 0 0 0 7.921 16.2c.484-.932.38-2.058-.281-3.01a1.478 1.478 0 0 0-.374-.37c-.834-.568-1.806-.715-2.645-.418l-.016-2.653 2.917-.018a.917.917 0 0 0 .786-.45.892.892 0 0 0 .025-.883 1.556 1.556 0 0 1-.181-.72c-.003-.421.159-.817.457-1.117s.693-.463 1.115-.463h.002c.369 0 .74.124 1.099.367.031.022.06.049.081.079.423.605.502 1.273.217 1.833a.914.914 0 0 0 .824 1.326l2.918-.017.017 2.907a.919.919 0 0 0 .916.912c.14 0 .281-.034.415-.101.549-.283 1.21-.211 1.817.203.032.022.06.05.081.08.421.608.497 1.279.205 1.839a1.57 1.57 0 0 1-2.088.685.923.923 0 0 0-1.052.174.921.921 0 0 0-.268.655l.016 2.65a.898.898 0 0 0-.153.166h-.001v.001a.955.955 0 0 0-.056.09l-2.79.017a.336.336 0 0 1-.301-.172.36.36 0 0 1 .014-.365c.487-.773.429-1.737-.16-2.585a.889.889 0 0 0-.225-.22c-.458-.311-.937-.47-1.425-.47-.574 0-1.112.224-1.517.631s-.626.947-.622 1.521c.003.405.12.799.338 1.137a.363.363 0 0 1 .016.368.346.346 0 0 1-.301.18l-3.078.018-.014-2.492c.279.095.572.143.882.143zm12.759 1.79-2.233.014-.012-2.099a2.711 2.711 0 0 0 2.612-.487c-.535.829-.665 1.744-.366 2.572zm1.118.692a.907.907 0 0 0 .033-.888c-.166-.324-.361-.991.202-1.817a.332.332 0 0 1 .081-.082c.365-.253.74-.381 1.117-.381.86 0 1.564.701 1.57 1.561.002.248-.053.486-.163.706a.891.891 0 0 0 .04.877c.17.274.463.439.791.439l2.906-.018.015 2.668c-.891-.4-1.971-.275-2.87.35-.144.1-.272.229-.372.376-.65.958-.744 2.082-.253 3.011a2.705 2.705 0 0 0 3.525 1.192l.016 2.666-2.492.015c.096-.282.144-.582.143-.882a2.712 2.712 0 0 0-2.706-2.69c-.603 0-1.213.202-1.763.584a1.434 1.434 0 0 0-.371.374c-.578.847-.724 1.792-.42 2.645l-2.653.015-.018-2.916a.92.92 0 0 0-.915-.915.904.904 0 0 0-.418.103 1.568 1.568 0 0 1-2.118-.655c-.296-.557-.227-1.228.186-1.838a.333.333 0 0 1 .079-.08c.609-.426 1.279-.499 1.83-.218a.927.927 0 0 0 1.062-.171.909.909 0 0 0 .266-.652l-.017-2.918 2.908-.017a.911.911 0 0 0 .778-.442zM3.649 31.089a.92.92 0 0 0 .918.911h.005l10.56-.062c.028 0 .055-.006.082-.01a.92.92 0 0 0 .361.073l3.276-.019a.545.545 0 0 0 .114-.012c.278-.058.518-.246.641-.504s.118-.55-.012-.804c-.166-.324-.36-.993.203-1.82a.304.304 0 0 1 .08-.08c.365-.253.741-.381 1.116-.381.861 0 1.566.701 1.57 1.561.001.248-.054.487-.164.706a.889.889 0 0 0-.003.796.927.927 0 0 0 .648.5.475.475 0 0 0 .114.011l3.111-.018c.246-.001.476-.098.649-.273s.266-.406.265-.65l-.018-3.253a.907.907 0 0 0-.918-.908.932.932 0 0 0-.505.15 1.572 1.572 0 0 1-2.233-.59c-.296-.557-.227-1.228.188-1.839a.3.3 0 0 1 .079-.08c.368-.255.745-.385 1.122-.385.296 0 .583.084.833.242a.945.945 0 0 0 1.147-.125.892.892 0 0 0 .26-.643l-.018-3.266a.923.923 0 0 0-.924-.912l-2.793.017c.099-.285.147-.585.146-.892a2.714 2.714 0 0 0-2.706-2.69c-.598 0-1.201.198-1.748.572.084-.114.162-.233.229-.361.485-.934.381-2.058-.279-3.009a1.45 1.45 0 0 0-.374-.371c-.831-.568-1.81-.716-2.654-.415L16 9.462a.92.92 0 0 0-.923-.912l-2.8.016c.309-.865.156-1.821-.439-2.672a1.463 1.463 0 0 0-.372-.368c-.546-.37-1.147-.565-1.739-.565h-.003c-.726 0-1.408.284-1.92.798a2.687 2.687 0 0 0-.621 2.837l-2.803.016a.917.917 0 0 0-.912.923l.02 3.277c0 .038.005.075.011.112a.92.92 0 0 0 .895.731.897.897 0 0 0 .413-.101c.554-.283 1.211-.212 1.82.203.03.021.06.05.08.08.422.609.497 1.279.206 1.839a1.573 1.573 0 0 1-2.096.682.891.891 0 0 0-.397-.094.917.917 0 0 0-.896.743.606.606 0 0 0-.01.112l.017 3.113a.549.549 0 0 0 .059.24c-.001.014-.005.027-.005.041l.016 2.676c-.865-.309-1.82-.155-2.672.439-.142.099-.27.228-.368.372-.65.96-.743 2.087-.247 3.015a2.702 2.702 0 0 0 3.317 1.268l.016 2.803z"/></symbol><symbol id="icon-sun" viewBox="0 0 32 32"><path d="M.634 20.655C-1.707 12.481 2.631 3.884 10.481.995c8.746-3.171 18.731 1.55 20.728 9.724 1.722 6.976.62 12.895-3.168 16.982-3.03 3.312-5.509 4.298-10.811 4.298-8.401 0-14.599-4.228-16.596-11.345zm27.545-3.735c0-4.721-1.171-7.328-4.614-10.147-2.341-1.903-3.305-2.184-7.575-2.396-6.06-.282-8.814 1.198-10.811 5.708-3.925 8.667 1.24 18.039 10.192 18.673 7.781.493 12.877-4.228 12.808-11.838zm-13.673 3.244c-1.79-.705-2.754-3.664-1.859-5.708 1.102-2.537 5.302-2.537 6.404-.07 1.653 3.594-1.171 7.117-4.545 5.778z"/></symbol><symbol id="icon-telegram" viewBox="0 0 33 32"><path fill="#727d57" style="fill:var(--color1,#727d57)" d="M29.442 4.112a2.062 2.062 0 0 0-2.096-.326L3.457 13.43a2.055 2.055 0 0 0-1.274 1.959 2.057 2.057 0 0 0 1.378 1.887l5.155 1.789 2.793 9.235c.005.019.023.031.031.048a.658.658 0 0 0 .425.391c.013.005.023.017.036.02h.008l.004.001c.103.022.21.017.311-.016.011-.003.021-.003.033-.007a.656.656 0 0 0 .255-.163c.008-.009.021-.011.029-.019l4.017-4.435 5.863 4.54a2.02 2.02 0 0 0 1.247.429c.979 0 1.823-.685 2.024-1.641l4.349-21.357a2.04 2.04 0 0 0-.698-1.981v.001zM12.966 20.819l-.943 4.583-1.967-6.504 9.753-5.08-6.663 6.664a.667.667 0 0 0-.181.337zm11.519 6.363a.726.726 0 0 1-1.148.428l-6.351-4.919a.668.668 0 0 0-.901.08l-2.796 3.081.941-4.569 9.585-9.587a.66.66 0 0 0 .066-.864.667.667 0 0 0-.845-.198L9.219 17.831l-5.223-1.816a.707.707 0 0 1-.482-.656.71.71 0 0 1 .445-.69l23.885-9.644a.716.716 0 0 1 .744.114.692.692 0 0 1 .242.691l-4.348 21.352z"/></symbol><symbol id="icon-tiktok" viewBox="0 0 33 32"><path fill="none" stroke="#727d57" style="stroke:var(--color1,#727d57)" stroke-linejoin="round" stroke-linecap="round" stroke-width="1.304" d="M31.652 9.198v13.604a8.503 8.503 0 0 1-8.502 8.502H9.546a8.503 8.503 0 0 1-8.502-8.502V9.198A8.503 8.503 0 0 1 9.546.696H23.15a8.503 8.503 0 0 1 8.502 8.502z"/><path fill="none" stroke="#727d57" style="stroke:var(--color1,#727d57)" stroke-linejoin="round" stroke-linecap="round" stroke-width="1.304" d="M12.949 15.999a5.098 5.098 0 0 0-4.713 3.149 5.1 5.1 0 0 0 3.718 6.955A5.099 5.099 0 0 0 18.05 21.1V5.796c.566 1.7 2.721 5.101 6.802 5.101"/></symbol><symbol id="icon-uah" viewBox="0 0 21 32"><path fill="#474745" style="fill:var(--color2,#474745)" d="M14.373 14.327h5.706v-3.346h-2.811c.703-1.104 1.138-2.209 1.138-3.346 0-4.401-4.183-6.693-8.366-6.693-3.932 0-7.479 3.447-7.881 3.832L4.535 7.15c.803-.803 3.346-2.861 5.505-2.861 1.74 0 5.02.703 5.02 3.346 0 .837-.837 2.075-2.075 3.346H.001v3.346h9.42c-.703.602-3.146 2.794-3.715 3.346H0v3.346h2.811c-.703 1.104-1.138 2.209-1.138 3.346 0 4.401 4.183 6.693 8.366 6.693 3.932 0 7.479-3.447 7.881-3.832l-2.376-2.376c-.786.803-3.346 2.861-5.505 2.861-1.74 0-5.02-.703-5.02-3.346 0-.837.837-2.075 2.075-3.346h12.984v-3.346h-9.403l3.698-3.346z"/></symbol><symbol id="icon-zernoLogo" viewBox="0 0 94 32"><path fill="#727d57" style="fill:var(--color1,#727d57)" d="M-.013 14.481c.053-1.767.71-3.313 1.682-4.74a18.91 18.91 0 0 1 3.964-4.118 46.37 46.37 0 0 1 6.796-4.469 8.987 8.987 0 0 1 3.68-1.09c.351-.026.577.098.641.359s-.034.5-.342.665a60.085 60.085 0 0 0-7.634 4.824c-1.579 1.19-3.097 2.453-4.343 3.999a13.833 13.833 0 0 0-1.34 1.99c-.917 1.656-.893 3.321.019 4.999a30.574 30.574 0 0 0 3.462 4.969c1.34 1.599 2.738 3.152 4.407 4.413.91.679 1.868 1.291 2.866 1.834 1.802.994 3.59.806 5.328-.229a32.963 32.963 0 0 0 4.864-3.618 56.092 56.092 0 0 0 4.556-4.488 4.037 4.037 0 0 0 1.113-2.148 3.317 3.317 0 0 0-.323-1.966 18.944 18.944 0 0 0-1.188-2.077c-1.302-1.934-2.642-3.847-4.223-5.557-.855-.932-1.746-1.829-2.834-2.498-.827-.509-1.71-.87-2.706-.793a4.824 4.824 0 0 0-2.206.791c-2.727 1.71-5.208 3.723-7.266 6.211a9.925 9.925 0 0 0-1.564 2.451.978.978 0 0 0-.013.812c.09.23.193.455.308.673a21.642 21.642 0 0 0 6.638 7.035c.101.068.214.12.308.186.735.504 1.496.511 2.315.199a10.3 10.3 0 0 0 2.468-1.387 17.22 17.22 0 0 0 3.575-3.501c.164-.229.315-.467.451-.714a1.856 1.856 0 0 0 .024-1.881 5.01 5.01 0 0 0-.451-.742 17.703 17.703 0 0 0-3.509-3.53 8.639 8.639 0 0 0-1.199-.68 1.248 1.248 0 0 0-1.201.045c-.787.414-1.521.92-2.188 1.507a12.304 12.304 0 0 0-2.114 2.259 1.025 1.025 0 0 0-.056 1.263 10.342 10.342 0 0 0 2.686 2.992.636.636 0 0 0 .727.081 6.627 6.627 0 0 0 1.994-1.415c.267-.282.303-.427.107-.776a8.657 8.657 0 0 0-.592-.829c-.284-.385-.583-.757-.855-1.15a.615.615 0 0 1 .026-.763.647.647 0 0 1 .742-.213c.201.042.394.114.573.214 1.069.641 1.802 1.534 2.06 2.768a1.8 1.8 0 0 1-.248 1.451 6.76 6.76 0 0 1-3.868 2.731c-.43.097-.881.026-1.261-.197a7.311 7.311 0 0 1-1.817-1.361 10.813 10.813 0 0 1-2.227-2.883c-.231-.411-.348-.877-.337-1.349s.147-.932.395-1.333a11.787 11.787 0 0 1 2.077-2.552 15.428 15.428 0 0 1 2.969-2.259c1.178-.682 2.351-.69 3.573-.124a10.383 10.383 0 0 1 2.541 1.718 18.977 18.977 0 0 1 3.09 3.42c.588.806.901 1.78.891 2.778a4.449 4.449 0 0 1-.641 2.107 14.042 14.042 0 0 1-2.492 3.041 16.485 16.485 0 0 1-4.157 3.045 7.18 7.18 0 0 1-2.815.791 3.638 3.638 0 0 1-1.684-.374 13.214 13.214 0 0 1-3.223-2.161c-1.958-1.686-3.695-3.569-5.033-5.794a6.205 6.205 0 0 1-.898-2.214 2.758 2.758 0 0 1 .143-1.458c.492-1.263 1.282-2.325 2.182-3.319 2.124-2.366 4.606-4.315 7.209-6.119a8.8 8.8 0 0 1 2.983-1.438c1.605-.378 3.101-.038 4.533.699a14.793 14.793 0 0 1 3.336 2.488c2.37 2.235 4.302 4.823 6.018 7.576a7.017 7.017 0 0 1 1.069 3.404 5.795 5.795 0 0 1-1.233 3.917 24.073 24.073 0 0 1-1.804 2.026 45.854 45.854 0 0 1-7.548 6.39c-1.09.722-2.208 1.393-3.481 1.761a7.406 7.406 0 0 1-5.546-.543 20.234 20.234 0 0 1-5.071-3.612 40.153 40.153 0 0 1-6.087-7.497C1.083 18.316.476 17.19.194 15.923c-.103-.474-.137-.962-.209-1.443zM36.405 6.136c1.275.038 2.54.245 3.761.615.823.224 1.629.509 2.445.75a1.044 1.044 0 0 1 .748.855 3.613 3.613 0 0 1-.303 2.539c-.481.921-1.036 1.802-1.564 2.697-.81 1.372-1.682 2.712-2.415 4.125a15.668 15.668 0 0 0-1.079 2.889c-.427 1.496.795 2.902 2.374 2.791a5.196 5.196 0 0 0 2.992-1.197 1.259 1.259 0 0 1 .894-.344 1.243 1.243 0 0 1 .875.39c.355.31.634.698.814 1.133.177.464.09.756-.316 1.047a4.459 4.459 0 0 1-1.661.641c-1.417.318-2.821.186-4.208-.169-1.069-.274-2.116-.601-3.171-.904s-1.415-.795-1.353-2.09c.077-1.646.656-3.163 1.316-4.646.707-1.588 1.665-3.033 2.607-4.488.5-.772.987-1.554 1.479-2.334.051-.078.096-.161.135-.246.137-.325.397-.641.239-1.009a1.701 1.701 0 0 0-1.062-1.023 4.03 4.03 0 0 0-2.372-.011 5.355 5.355 0 0 0-2.101 1.069 1.202 1.202 0 0 1-1.667-.033 4.915 4.915 0 0 1-.829-1.09c-.286-.519-.156-.872.34-1.195a4.512 4.512 0 0 1 1.752-.615c.511-.071 1.03-.115 1.329-.15zM70.931 11.477c-.013.143-.026.224-.028.308-.036 1.227-.051 2.456-.118 3.68-.051.962-.165 1.923-.254 2.879 0 .068-.028.135-.041.201-.075.338-.214.592-.624.605-.346.011-.69.107-1.039.135s-.427-.026-.494-.372c-.109-.641-.214-1.295-.254-1.949a28.435 28.435 0 0 1 .156-5.796c.126-.908.329-1.808.5-2.71a.532.532 0 0 1 .582-.464c.688 0 1.282.13 1.774.71 1.524 1.817 3.082 3.605 4.627 5.405.043.051.088.101.147.169v-1.329a19.084 19.084 0 0 1 .318-3.586c.109-.594.259-.744.855-.791a8.907 8.907 0 0 1 1.479 0c.342.026.406.13.372.477-.079.797-.197 1.592-.265 2.389a67.362 67.362 0 0 0-.214 3.266c-.036 1.201 0 2.404-.011 3.605 0 .549-.162.692-.714.656a1.316 1.316 0 0 1-.938-.558c-.601-.733-1.195-1.47-1.806-2.195a2970.609 2970.609 0 0 0-3.847-4.556l-.165-.177zM63.925 13.726c1.036 1.128 1.539 2.511 1.855 3.975.052.267.064.54.036.81a.826.826 0 0 1-.855.743c-.427.013-.697-.214-.78-.686a10.935 10.935 0 0 0-.214-1.31c-.438-1.417-1.419-2.319-2.823-2.748-.348-.105-.746-.056-1.118-.088-.406-.038-.81-.09-1.282-.141.024.293.026.62.081.938.173.998.368 1.992.551 2.992.03.158.045.321.06.481.03.342-.045.445-.374.526a1.744 1.744 0 0 1-2.118-1.119 8.231 8.231 0 0 1-.408-2.539 31.193 31.193 0 0 1 .265-5.843c.282-1.868 1.357-2.778 3.037-3.035 1.227-.18 2.434-.045 3.633.182a3.065 3.065 0 0 1 2.605 2.748c.023.363-.027.726-.147 1.069-.357 1.199-.827 1.887-2.005 3.045zm-5.052-1.696h.024c0 .214-.015.427-.03.641-.026.397.041.506.442.502a15.088 15.088 0 0 0 1.802-.117c.868-.115 1.52-.519 1.71-1.458a8.929 8.929 0 0 0 .135-2.543 1.245 1.245 0 0 0-.299-.63 1.46 1.46 0 0 0-1.545-.498c-.878.233-1.923.776-2.013 2.077-.053.673-.15 1.342-.224 2.026zM87.261 18.875a16.238 16.238 0 0 1-3.019-.398c-1.381-.316-2.249-1.186-2.789-2.438-.566-1.308-.596-2.671-.323-4.041.455-2.283 1.947-3.701 4.003-4.606.247-.086.508-.123.77-.109 1.136-.007 2.27.086 3.389.28 1.106.18 2.1.776 2.779 1.667 1.055 1.334 1.581 2.834 1.425 4.539-.084.887-.49 1.652-.971 2.389-.921 1.411-2.26 2.197-3.847 2.59a9.224 9.224 0 0 1-1.417.126zm-.214-1.709.562-.028c1.412-.073 2.451-.774 3.169-1.951a3.535 3.535 0 0 0 .475-1.887c0-.942-.152-1.857-.752-2.627-1.007-1.293-2.95-1.812-4.623-1.299a3.212 3.212 0 0 0-2.28 2.272 6.603 6.603 0 0 0-.289 2.447c.021.315.1.623.231.91.706 1.453 1.909 2.131 3.509 2.154l-.002.009zM51.045 7.443c.716.019 1.522.032 2.287.321.23.091.446.214.641.365a.637.637 0 0 1 .214.823c-.026.064-.045.13-.07.192-.192.492-.457.671-.985.622s-1.032-.158-1.552-.182a14.746 14.746 0 0 0-1.784.023c-.673.053-1.143.449-1.466 1.028a5.24 5.24 0 0 0-.592 2.049c-.09.889-.092 1.774.282 2.614a3.315 3.315 0 0 0 4.071 1.862c.322-.112.649-.207.981-.284a.682.682 0 0 1 .831.466c.154.395.068.855-.267 1.024-.352.19-.728.33-1.118.417a8.566 8.566 0 0 1-3.33.135c-1.765-.312-2.979-1.246-3.548-2.992a9.094 9.094 0 0 1-.197-5.21c.398-1.526 1.378-2.445 2.847-2.902a9.074 9.074 0 0 1 2.755-.37z"/><path fill="#727d57" style="fill:var(--color1,#727d57)" d="M53.457 13.341a.904.904 0 0 1-.342.755 2.514 2.514 0 0 1-1.216.615c-.498.109-.893-.1-1.242-.447-.833-.831-.754-1.483.269-2.064a1.836 1.836 0 0 1 1.694-.139 1.266 1.266 0 0 1 .836 1.28zM85.59 13.196c0-.489.313-.812.592-1.156a1.24 1.24 0 0 1 .162-.162c.555-.513.975-.551 1.609-.137.427.276.799.592.908 1.12a1.073 1.073 0 0 1-.261 1c-.551.571-1.214.88-2.032.695-.596-.133-.981-.673-.978-1.359zM53.538 26.356c0 .09-.017.141-.017.192-.024.765-.032 1.53-.075 2.293-.032.598-.103 1.195-.158 1.793a.76.76 0 0 1-.026.124c-.045.214-.126.37-.387.378-.214 0-.427.066-.641.081s-.274-.015-.308-.229c-.068-.404-.13-.808-.158-1.214a17.732 17.732 0 0 1 .096-3.612c.079-.566.214-1.126.312-1.688a.33.33 0 0 1 .361-.289 1.294 1.294 0 0 1 1.107.442c.947 1.133 1.923 2.246 2.881 3.366.026.032.053.064.092.105v-.827c-.007-.749.06-1.497.199-2.233.066-.37.16-.464.532-.494.307-.025.615-.025.921 0 .214.017.254.081.233.297-.049.496-.124.992-.164 1.496a38.388 38.388 0 0 0-.133 2.035c-.021.748 0 1.496 0 2.246 0 .342-.1.427-.445.408a.822.822 0 0 1-.584-.348c-.374-.457-.746-.915-1.124-1.366a664.598 664.598 0 0 0-2.4-2.838l-.115-.12zM70.361 31.222a10.278 10.278 0 0 1-1.881-.246c-.855-.197-1.4-.739-1.738-1.52a4.167 4.167 0 0 1-.201-2.518c.284-1.421 1.214-2.306 2.494-2.87.155-.055.319-.079.483-.073.708-.003 1.414.055 2.111.175.69.11 1.311.482 1.733 1.039.327.389.574.84.727 1.325s.207.996.16 1.503a3.271 3.271 0 0 1-.603 1.496 3.822 3.822 0 0 1-2.4 1.613 5.73 5.73 0 0 1-.887.075zm-7.933.055a10.194 10.194 0 0 1-1.881-.248c-.855-.197-1.4-.739-1.738-1.52a4.142 4.142 0 0 1-.201-2.515c.284-1.423 1.214-2.306 2.494-2.87.155-.055.319-.079.483-.073.708-.004 1.414.055 2.111.175.313.052.615.156.893.31.376.214.727.363.84.729.013.036.128.427-.073.654-.239.267-.748.1-1.675-.077-1.216-.233-1.825-.348-2.244-.19-.795.301-1.156 1.314-1.218 2.017-.026.293-.096 1.092.428 1.648.855.921 2.5.288 2.885.139.308-.118.677-.265.722-.539.083-.506-1.034-.883-.955-1.182.113-.427 2.738-.504 3.02.355.135.408-.269.977-.603 1.496a3.827 3.827 0 0 1-2.4 1.614 5.757 5.757 0 0 1-.889.077zm7.803-1.126.351-.017a2.349 2.349 0 0 0 1.972-1.214 2.19 2.19 0 0 0 .295-1.175 2.563 2.563 0 0 0-.468-1.637c-.626-.804-1.838-1.128-2.879-.808-.341.089-.652.267-.901.516s-.429.559-.52.899a4.117 4.117 0 0 0-.18 1.524c.013.196.061.388.143.566.438.91 1.188 1.334 2.186 1.346z"/><path fill="#727d57" style="fill:var(--color1,#727d57)" d="M69.322 27.685c0-.306.194-.506.368-.72a.973.973 0 0 1 .1-.103c.348-.318.607-.342 1.002-.083a1.135 1.135 0 0 1 .569.696.67.67 0 0 1-.165.624 1.286 1.286 0 0 1-1.266.427.813.813 0 0 1-.609-.842z"/></symbol><symbol id="icon-ellipsis" viewBox="0 0 128 128"><path fill="#DAD8D5" style="fill:var(--color1,#dad8d5)" d="M39.914 64c0 3.142-2.567 5.689-5.735 5.689-3.167 0-5.735-2.547-5.735-5.689s2.568-5.689 5.735-5.689c3.168 0 5.735 2.547 5.735 5.689ZM69.742 64c0 3.142-2.567 5.689-5.735 5.689-3.167 0-5.735-2.547-5.735-5.689s2.568-5.689 5.735-5.689c3.168 0 5.735 2.547 5.735 5.689ZM99.553 64c0 3.142-2.567 5.689-5.735 5.689-3.167 0-5.735-2.547-5.735-5.689s2.568-5.689 5.735-5.689c3.168 0 5.735 2.547 5.735 5.689Z"/></symbol><symbol id="icon-question" viewBox="0 0 27 27"><path d="M14.766 18.984a1.265 1.265 0 1 1-2.53 0 1.265 1.265 0 0 1 2.53 0ZM13.5 7.594c-2.327 0-4.219 1.703-4.219 3.797v.421a.844.844 0 1 0 1.688 0v-.421c0-1.16 1.136-2.11 2.531-2.11 1.395 0 2.531.95 2.531 2.11S14.895 13.5 13.5 13.5a.844.844 0 0 0-.844.844v.844a.843.843 0 1 0 1.688 0v-.076c1.923-.354 3.375-1.888 3.375-3.721 0-2.094-1.892-3.797-4.219-3.797ZM24.469 13.5A10.97 10.97 0 1 1 13.5 2.531 10.98 10.98 0 0 1 24.469 13.5Zm-1.688 0a9.281 9.281 0 1 0-9.281 9.281 9.292 9.292 0 0 0 9.281-9.281Z"/></symbol><symbol id="icon-filter" viewBox="0 0 44 44"><path fill="#727D57" style="fill:var(--color1,#727d57)" d="M12.836 20.167h18.333v3.667H12.836v-3.667Zm-5.5-7.333h29.333v3.667H7.336v-3.667Zm11 14.667h7.333v3.666h-7.333v-3.666Z"/></symbol><symbol id="icon-close" viewBox="0 0 27 27"><path d="M26.484 25.027a1.03 1.03 0 1 1-1.457 1.457L13.38 14.84 1.734 26.484a1.032 1.032 0 0 1-1.457-1.457L11.92 13.38.277 1.734A1.031 1.031 0 0 1 1.734.277L13.38 11.92 25.027.277a1.031 1.031 0 0 1 1.457 1.457L14.84 13.38l11.644 11.647Z"/></symbol></defs></svg>