<svg aria-hidden="true" style="position: absolute; width: 0; height: 0; overflow: hidden;" version="1.1" xmlns="http://www.w3.org/2000/svg" xmlns:xlink="http://www.w3.org/1999/xlink">
<defs>
<symbol id="icon-arrowD" viewBox="0 0 32 32">
<path fill="none" stroke="#727d57" style="stroke: var(--color1, #727d57)" stroke-linejoin="miter" stroke-linecap="round" stroke-miterlimit="4" stroke-width="3.2" d="M1.6 8.8l14.131 14.131 14.131-14.131"></path>
</symbol>
<symbol id="icon-arrowL" viewBox="0 0 33 32">
<path fill="#727d57" style="fill: var(--color1, #727d57)" d="M24.727 25.113v-19.234c-0.001-0.195-0.054-0.386-0.155-0.552s-0.246-0.302-0.418-0.393c-0.172-0.090-0.366-0.132-0.561-0.121s-0.382 0.076-0.543 0.186l-13.891 9.617c-0.576 0.399-0.576 1.358 0 1.758l13.891 9.617c0.16 0.111 0.348 0.177 0.543 0.189s0.389-0.029 0.562-0.12c0.173-0.091 0.317-0.227 0.418-0.394s0.154-0.358 0.154-0.554z"></path>
</symbol>
<symbol id="icon-arrowR" viewBox="0 0 33 32">
<path fill="#727d57" style="fill: var(--color1, #727d57)" d="M8.727 6.16v19.234c0.001 0.195 0.054 0.386 0.155 0.552s0.246 0.302 0.418 0.393c0.172 0.090 0.366 0.132 0.561 0.121s0.382-0.076 0.543-0.186l13.891-9.617c0.576-0.399 0.576-1.358 0-1.758l-13.891-9.617c-0.16-0.111-0.348-0.177-0.543-0.189s-0.389 0.029-0.562 0.12c-0.173 0.091-0.317 0.227-0.418 0.394s-0.154 0.358-0.154 0.554z"></path>
</symbol>
<symbol id="icon-arrowU" viewBox="0 0 29 32">
<path fill="#474745" style="fill: var(--color2, #474745)" opacity="0.3" d="M29.061 17.329c0 7.935-6.432 14.367-14.367 14.367s-14.367-6.432-14.367-14.367c0-7.935 6.432-14.367 14.367-14.367s14.367 6.432 14.367 14.367z"></path>
<path fill="#fff" style="fill: var(--color3, #fff); stroke: var(--color3, #fff)" stroke="#fff" stroke-linejoin="miter" stroke-linecap="butt" stroke-miterlimit="4" stroke-width="0.6531" d="M21.154 21.002c0.078 0.078 0.169 0.14 0.27 0.181s0.207 0.060 0.314 0.057c0.107-0.003 0.213-0.029 0.31-0.076s0.186-0.113 0.26-0.197c0.074-0.083 0.131-0.181 0.169-0.287s0.056-0.221 0.053-0.335-0.027-0.227-0.071-0.331c-0.044-0.104-0.106-0.198-0.184-0.277l-7.343-7.394c-0.152-0.153-0.352-0.238-0.561-0.238s-0.409 0.085-0.56 0.238l-7.343 7.394c-0.080 0.078-0.144 0.172-0.189 0.277s-0.070 0.218-0.074 0.333c-0.004 0.115 0.014 0.23 0.052 0.338s0.096 0.206 0.17 0.29c0.074 0.084 0.163 0.151 0.262 0.198s0.205 0.072 0.313 0.075c0.108 0.003 0.215-0.018 0.316-0.060s0.192-0.105 0.27-0.185l6.784-6.831 6.782 6.831z"></path>
</symbol>
<symbol id="icon-book" viewBox="0 0 40 32">
<path fill="#727d57" style="fill: var(--color1, #727d57)" d="M23.437 1.373c4.953 0 9.904 0 14.856 0 0 8.189 0 16.377 0 24.567-4.951 0-9.903 0-14.856 0 0-8.19 0-16.378 0-24.567zM22.184 29.897c-0.651-0.533-1.3-1.066-1.95-1.6-0.161-0.131-0.473-0.13-0.633 0-0.657 0.536-1.314 1.070-1.97 1.606 0-9.51 0-19.020 0-28.53 0.008 0 0.014 0 0.020 0 1.429 0 2.856 0 4.285 0 0.082 0 0.165 0 0.248 0 0 9.508 0 19.016 0 28.524zM16.377 25.94c-5.028 0-10.055 0-15.082 0 0-8.19 0-16.378 0-24.567 5.027 0 10.054 0 15.082 0 0 8.189 0 16.377 0 24.567zM21.936-0c-1.429 0-2.856 0-4.285 0-0.215 0-0.431 0-0.648 0-5.445 0-10.89 0-16.337 0-0.338 0-0.627 0.315-0.627 0.686 0 8.647 0 17.294 0 25.94 0 0.371 0.288 0.686 0.627 0.686 5.237 0 10.474 0 15.71 0 0 1.317 0 2.634 0 3.952 0 0.476 0.549 0.914 0.944 0.593 0.442-0.361 0.885-0.722 1.328-1.083 0.326-0.265 0.651-0.53 0.977-0.796 0.083-0.067 0.205-0.143 0.309-0.215 0.063 0.043 0.125 0.088 0.17 0.134 0.284 0.286 0.633 0.519 0.943 0.773 0.482 0.395 0.965 0.791 1.447 1.187 0.268 0.221 0.534 0.14 0.705-0.063 0.14-0.11 0.238-0.284 0.238-0.53 0-1.317 0-2.634 0-3.952 5.161 0 10.322 0 15.483 0 0.183 0 0.323-0.073 0.423-0.183 0.008-0.008 0.014-0.015 0.021-0.023 0.004-0.004 0.008-0.009 0.012-0.013 0.101-0.11 0.17-0.264 0.17-0.467 0-8.647 0-17.294 0-25.94 0-0.371-0.287-0.686-0.626-0.686-5.37 0-10.74 0-16.11 0-0.292 0-0.584 0-0.874 0z"></path>
<path fill="#727d57" style="fill: var(--color1, #727d57)" d="M4.142 7.822c2.954 0 5.908 0 8.86 0 0.538 0 0.539-0.915 0-0.915-2.952 0-5.906 0-8.86 0-0.538 0-0.539 0.915 0 0.915z"></path>
<path fill="#727d57" style="fill: var(--color1, #727d57)" d="M4.142 11.671c2.954 0 5.908 0 8.86 0 0.538 0 0.539-0.915 0-0.915-2.952 0-5.906 0-8.86 0-0.538 0-0.539 0.915 0 0.915z"></path>
<path fill="#727d57" style="fill: var(--color1, #727d57)" d="M4.142 15.52c2.954 0 5.908 0 8.86 0 0.538 0 0.539-0.915 0-0.915-2.952 0-5.906 0-8.86 0-0.538 0-0.539 0.915 0 0.915z"></path>
<path fill="#727d57" style="fill: var(--color1, #727d57)" d="M4.142 19.368c2.954 0 5.908 0 8.86 0 0.538 0 0.539-0.915 0-0.915-2.952 0-5.906 0-8.86 0-0.538 0-0.539 0.915 0 0.915z"></path>
<path fill="#727d57" style="fill: var(--color1, #727d57)" d="M35.487 6.906c-2.955 0-5.908 0-8.861 0-0.537 0-0.538 0.915 0 0.915 2.953 0 5.907 0 8.861 0 0.536 0 0.538-0.915 0-0.915z"></path>
<path fill="#727d57" style="fill: var(--color1, #727d57)" d="M35.487 10.756c-2.955 0-5.908 0-8.861 0-0.537 0-0.538 0.915 0 0.915 2.953 0 5.907 0 8.861 0 0.536 0 0.538-0.915 0-0.915z"></path>
<path fill="#727d57" style="fill: var(--color1, #727d57)" d="M35.487 14.605c-2.955 0-5.908 0-8.861 0-0.537 0-0.538 0.915 0 0.915 2.953 0 5.907 0 8.861 0 0.536 0 0.538-0.915 0-0.915z"></path>
<path fill="#727d57" style="fill: var(--color1, #727d57)" d="M35.487 18.453c-2.955 0-5.908 0-8.861 0-0.537 0-0.538 0.915 0 0.915 2.953 0 5.907 0 8.861 0 0.536 0 0.538-0.915 0-0.915z"></path>
</symbol>
<symbol id="icon-burger" viewBox="0 0 32 32">
<path fill="#727d57" style="fill: var(--color1, #727d57)" d="M4 24h24v-2.667h-24v2.667zM4 17.333h24v-2.667h-24v2.667zM4 8v2.667h24v-2.667h-24z"></path>
</symbol>
<symbol id="icon-check" viewBox="0 0 32 32">
<path fill="#4caf50" style="fill: var(--color4, #4caf50)" d="M16 30c7.732 0 14-6.268 14-14s-6.268-14-14-14c-7.732 0-14 6.268-14 14s6.268 14 14 14z"></path>
<path fill="#fff" style="fill: var(--color3, #fff)" d="M23.067 9.734l-9.067 9.067-3.733-3.733-1.867 1.867 5.6 5.6 10.933-10.933-1.867-1.867z"></path>
</symbol>
<symbol id="icon-community" viewBox="0 0 32 32">
<path d="M21.304 23.601c0.617-1.345 1.714-2.761 2.605-3.186 4.251-1.699 8.090 0.566 8.090 4.814-0.069 6.938-8.227 9.415-10.696 3.256-0.823-2.053-0.823-2.761 0-4.885zM4.53 20.22c-6.308 2.478-5.074 11.539 1.508 11.539 5.005 0 7.679-6.442 4.114-10.053-1.303-1.345-4.114-2.124-5.622-1.487zM20.948 6.409c0-3.681 0.343-4.46 2.4-5.663 2.125-1.203 3.497-0.991 5.691 0.92 4.662 4.035 2.605 10.194-3.428 10.265-3.428 0-4.662-1.487-4.662-5.522zM0.352 7.279c-1.028-2.265 0.274-5.097 2.88-6.442 2.194-1.133 3.085-1.133 5.416 0.142 4.731 2.478 3.291 10.477-1.851 10.477-2.605 0-5.416-1.841-6.445-4.177z"></path>
</symbol>
<symbol id="icon-earth" viewBox="0 0 32 32">
<path fill="#727d57" style="fill: var(--color1, #727d57)" d="M28.688 24.040c-0.263-0.891-0.441-1.603-0.459-1.772-0.019-0.244-0.047-0.506-0.094-0.74-0.066-0.375 0.103-0.863 0.272-1.369 0.281-0.816 0.591-1.735 0.216-2.747-0.253-0.647-0.609-1.022-0.9-1.331-0.328-0.356-0.413-0.431-0.337-0.938 0.094-0.647 0.375-0.891 0.872-1.341v-0.009c0.066-0.056 0.141-0.122 0.206-0.188 0.103-0.094 0.206-0.188 0.309-0.3 0.094-0.094 0.187-0.197 0.272-0.3 0.094-0.113 0.178-0.225 0.263-0.347 0.825-1.2 0.478-2.203 0.206-2.7-0.281-0.488-0.722-0.9-1.247-1.238-1.116-0.731-2.616-1.088-3.591-1.041-1.444 0.075-2.081 0.919-2.503 1.481-0.216 0.3-0.356 0.469-0.525 0.553-0.038-0.009-0.113-0.019-0.141-0.019-0.347-0.056-0.984-0.15-1.688 0.366-0.572 0.413-1.013 1.134-1.238 1.669-0.263 0.609-0.356 1.163-0.441 1.659-0.122 0.741-0.206 1.228-0.75 1.725-0.75 0.694-1.153 0.628-2.138 0.45-0.403-0.075-0.853-0.159-1.388-0.178-2.26-0.122-5.091 0.788-5.654 3.713-0.319 1.66 0.253 3.056 1.584 3.919 0.188 0.132 0.394 0.253 0.619 0.356 0.197 0.094 0.384 0.178 0.563 0.263 0.413 0.178 0.759 0.337 1.059 0.534 0.197 0.131 0.375 0.291 0.544 0.478 0.178 0.215 0.328 0.403 0.469 0.572 0.328 0.431 0.638 0.816 1.153 1.135 0.309 0.206 0.694 0.384 1.228 0.534 0.572 0.159 1.153 0.45 1.706 0.806 1.059 0.703 2.044 1.688 2.775 2.653-1.191 0.309-2.419 0.459-3.657 0.459-2.025 0-3.985-0.403-5.832-1.2 0.019-0.122 0.037-0.244 0.047-0.365 0.009-0.010 0.009-0.019 0.009-0.019 0.009-0.131 0.019-0.262 0.028-0.394 0-0.037 0-0.084 0-0.131 0.009-0.094 0.009-0.178 0.009-0.272 0-0.056 0-0.103-0.009-0.159 0-0.084-0-0.168-0.009-0.253 0-0.056-0.009-0.103-0.009-0.159-0.009-0.084-0.019-0.169-0.038-0.253 0-0.056-0.009-0.113-0.019-0.16-0.009-0.094-0.028-0.188-0.047-0.281-0.009-0.047-0.019-0.094-0.028-0.141-0.028-0.131-0.066-0.272-0.103-0.412-0.394-1.444-1.21-1.875-1.941-2.25-0.309-0.159-0.609-0.319-0.928-0.581-0.525-0.45-0.487-0.778-0.112-1.884 0.122-0.347 0.253-0.713 0.328-1.106 0.338-1.669-0.309-3.863-1.566-5.344-0.675-0.797-0.994-1.528-0.863-1.969 0.009-0.028 0.019-0.066 0.038-0.094 0.047-0.094 0.122-0.188 0.234-0.272 0.103-0.084 0.244-0.178 0.412-0.253 0.056-0.028 0.112-0.056 0.169-0.075 0.328-0.131 0.863-0.225 1.378-0.319 1.509-0.272 4.031-0.713 3.872-3.056-0.047-0.778-0.506-1.266-0.844-1.613-0.159-0.169-0.3-0.319-0.338-0.431-0.075-0.234-0.047-0.544-0.019-0.909 0.028-0.375 0.066-0.797-0.009-1.247-0.019-0.131-0.047-0.263-0.066-0.384-0.009-0.037-0.019-0.075-0.028-0.112-0.028-0.075-0.047-0.15-0.066-0.225-0.009-0.037-0.028-0.075-0.038-0.112-0.019-0.066-0.047-0.131-0.066-0.188-0.019-0.037-0.028-0.075-0.047-0.103-0.028-0.066-0.056-0.122-0.084-0.178-0.009-0.019-0.019-0.047-0.038-0.075-0.047-0.075-0.084-0.141-0.141-0.206 0-0.009-0.009-0.019-0.019-0.028-0.047-0.056-0.084-0.103-0.131-0.15-0.019-0.019-0.037-0.037-0.056-0.056-0.037-0.037-0.075-0.066-0.122-0.094-0.019-0.019-0.037-0.038-0.066-0.056-0.037-0.028-0.084-0.047-0.122-0.075-0.019-0.009-0.028-0.019-0.047-0.028 0.684-0.384 1.397-0.722 2.138-1.003 0.028 0.019 0.056 0.028 0.084 0.038 0.544 0.188 0.872 0.713 1.284 1.388 0.403 0.647 0.863 1.388 1.631 1.931 0.75 0.525 1.472 0.788 2.203 0.788 0.825 0 1.509-0.319 2.175-0.619l-0.244-0.544 0.272 0.534c0.347-0.159 0.703-0.319 1.088-0.441 1.481-0.459 2.738-0.084 4.332 0.403 0.413 0.131 0.788 0.244 1.181 0.347 0.084 0.028 0.169 0.037 0.253 0.056 0.028 0 0.056 0.009 0.084 0.009 0.056 0.009 0.113 0.019 0.169 0.019 0.038 0 0.075 0 0.103 0 0.056 0.009 0.113 0.009 0.159 0.009 0.038 0 0.075 0 0.113 0 0.047-0.009 0.103-0.009 0.159-0.009 0.038 0 0.075-0.009 0.112-0.009 0.047 0 0.103-0.009 0.15-0.019 0.038 0 0.075 0 0.113-0.009 0.056-0.009 0.112-0.009 0.159-0.019 0.038-0.009 0.075-0.009 0.122-0.019s0.103-0.019 0.159-0.028c0.038 0 0.075-0.009 0.113-0.019 0.019 0 0.028 0 0.047 0 2.56 2.747 3.966 6.319 3.966 10.088 0 2.888-0.816 5.635-2.372 8.035zM27.535 25.7c-1.65 1.922-3.76 3.384-6.113 4.247-0.075 0.028-0.15 0.056-0.225 0.084-1.181-1.669-3.216-3.666-5.447-4.294-0.956-0.263-1.219-0.6-1.697-1.209-0.141-0.178-0.309-0.385-0.516-0.619-0.628-0.722-1.294-1.022-2.072-1.369-0.169-0.075-0.356-0.16-0.544-0.244-1.219-0.581-1.725-1.594-1.472-2.925 0.394-2.053 2.391-2.756 4.116-2.756 0.103 0 0.206 0 0.309 0 0.45 0.028 0.863 0.103 1.238 0.169 1.050 0.188 1.969 0.347 3.16-0.75 0.834-0.769 0.975-1.603 1.116-2.4 0.075-0.469 0.159-0.919 0.356-1.397 0.159-0.384 0.497-0.919 0.844-1.172 0.309-0.225 0.525-0.188 0.806-0.15 0.206 0.037 0.45 0.075 0.722-0.028 0.516-0.206 0.797-0.591 1.078-0.966 0.375-0.488 0.722-0.956 1.603-1.003 1.069-0.047 3.075 0.572 3.666 1.631 0.253 0.45 0.216 0.919-0.141 1.434-0.263 0.384-0.572 0.656-0.863 0.928h-0.009c-0.534 0.488-1.088 0.984-1.247 2.053-0.159 1.078 0.253 1.519 0.656 1.941 0.244 0.263 0.478 0.506 0.638 0.928 0.234 0.609 0.009 1.256-0.216 1.941-0.216 0.628-0.441 1.284-0.319 1.969 0.038 0.188 0.056 0.403 0.075 0.637 0.047 0.431 0.469 1.894 0.806 2.963-0.103 0.122-0.206 0.244-0.309 0.356zM9.29 29.075c-0.028-0.019-0.056-0.028-0.084-0.047-4.782-2.597-7.757-7.585-7.757-13.023 0-4.435 1.973-8.607 5.395-11.429 0.225-0.188 0.459-0.366 0.694-0.534 0.872 0.028 1.144 0.066 1.359 1.359 0.047 0.3 0.019 0.609-0.009 0.947-0.037 0.45-0.084 0.919 0.075 1.388 0.122 0.375 0.366 0.628 0.609 0.881 0.309 0.319 0.497 0.544 0.516 0.863 0.075 1.181-1.2 1.5-2.888 1.8-0.15 0.028-0.3 0.056-0.45 0.084-0.431 0.084-0.844 0.178-1.172 0.309-0.844 0.338-1.35 0.816-1.547 1.453-0.337 1.097 0.413 2.278 1.088 3.085 1.003 1.191 1.575 3.047 1.313 4.341-0.066 0.309-0.178 0.638-0.281 0.956-0.347 1.013-0.75 2.166 0.478 3.178 0.412 0.356 0.797 0.553 1.144 0.731 0.188 0.103 0.375 0.197 0.534 0.309 0.356 0.234 0.619 0.553 0.797 1.191 0.206 0.74 0.263 1.453 0.188 2.156zM16.256 1.195c3.582 0 7.032 1.299 9.732 3.653-0.225 0.009-0.422 0-0.591-0.047-0.384-0.103-0.75-0.216-1.153-0.338-1.65-0.497-3.206-0.975-5.035-0.403-0.45 0.141-0.844 0.319-1.219 0.488l-0.028 0.019c-0.45 0.206-0.863 0.384-1.266 0.469-0.141 0.019-0.281 0.037-0.422 0.037-0.478 0-0.975-0.188-1.51-0.563-0.572-0.403-0.928-0.975-1.313-1.594-0.281-0.459-0.553-0.9-0.909-1.247 1.209-0.316 2.456-0.474 3.713-0.474zM26.832 4.004c-2.925-2.584-6.675-4.004-10.576-4.004-1.36 0-2.719 0.172-4.022 0.511-0.412 0.107-0.834 0.235-1.275 0.392h-0.009c-1.397 0.491-2.719 1.179-3.938 2.042-0.319 0.225-0.628 0.469-0.928 0.703-3.704 3.056-5.831 7.557-5.831 12.357 0 5.879 3.215 11.27 8.381 14.073 0.253 0.132 0.534 0.272 0.853 0.422 2.128 1.003 4.407 1.5 6.769 1.5 1.566 0 3.122-0.225 4.613-0.675 0.028 0.009 0.056 0.009 0.084 0.009 0.056 0 0.122-0.009 0.178-0.028 0.234-0.075 0.469-0.15 0.703-0.234 2.541-0.938 4.828-2.522 6.61-4.585 0.188-0.225 0.366-0.441 0.534-0.665 0.066-0.085 0.103-0.178 0.122-0.281 2.063-2.775 3.16-6.066 3.16-9.535 0-4.191-1.613-8.148-4.529-11.148-0.291-0.3-0.591-0.581-0.9-0.853z"></path>
<path fill="#727d57" style="fill: var(--color1, #727d57)" d="M20.946 25.934c-1.378-1.013-4.294-3.535-4.294-5.382 0-0.891 0.488-1.547 1.303-1.763 0.169-0.047 0.366-0.066 0.563-0.066 0.741 0 1.584 0.347 2.091 1.228l0.347 0.609 0.347-0.619c0.572-1.041 1.753-1.36 2.625-1.134 0.394 0.103 1.313 0.478 1.313 1.744 0 1.838-2.906 4.369-4.294 5.382zM24.124 18.031c-1.181-0.3-2.419 0.113-3.178 1.022-0.788-0.919-2.025-1.341-3.197-1.031-1.163 0.309-1.894 1.284-1.894 2.531 0 2.766 4.669 6.066 4.866 6.207l0.225 0.159 0.234-0.159c0.197-0.141 4.857-3.441 4.857-6.207 0-1.247-0.731-2.213-1.913-2.522z"></path>
</symbol>
<symbol id="icon-facebook" viewBox="0 0 32 32">
<path fill="none" stroke="#727d57" style="stroke: var(--color1, #727d57)" stroke-linejoin="miter" stroke-linecap="butt" stroke-miterlimit="4" stroke-width="1.3913" d="M16 31.304c-2.010 0-4-0.396-5.857-1.165s-3.544-1.896-4.965-3.318c-1.421-1.421-2.548-3.108-3.318-4.965s-1.165-3.847-1.165-5.857 0.396-4 1.165-5.857c0.769-1.857 1.896-3.544 3.318-4.965s3.108-2.548 4.965-3.318c1.857-0.769 3.847-1.165 5.857-1.165 4.059 0 7.952 1.612 10.822 4.483s4.483 6.763 4.483 10.822-1.612 7.952-4.483 10.822c-2.87 2.87-6.763 4.483-10.822 4.483zM16 31.304v-17.491c0-1.16 0.461-2.272 1.281-3.092s1.932-1.281 3.092-1.281h1.093M10.534 18.186h10.932"></path>
</symbol>
<symbol id="icon-instagram" viewBox="0 0 33 32">
<path fill="none" stroke="#727d57" style="stroke: var(--color1, #727d57)" stroke-linejoin="round" stroke-linecap="round" stroke-miterlimit="4" stroke-width="1.3043" d="M16.345 22.802c1.804 0 3.534-0.717 4.81-1.992s1.992-3.006 1.992-4.81c0-1.804-0.717-3.534-1.992-4.81s-3.006-1.992-4.81-1.992c-1.804 0-3.534 0.717-4.81 1.992s-1.992 3.006-1.992 4.81c0 1.804 0.717 3.534 1.992 4.81s3.006 1.992 4.81 1.992z"></path>
<path fill="none" stroke="#727d57" style="stroke: var(--color1, #727d57)" stroke-linejoin="miter" stroke-linecap="butt" stroke-miterlimit="4" stroke-width="1.3043" d="M1.043 22.802v-13.604c0-2.255 0.896-4.418 2.49-6.012s3.757-2.49 6.012-2.49h13.604c2.255 0 4.418 0.896 6.012 2.49s2.49 3.757 2.49 6.012v13.604c0 2.255-0.896 4.418-2.49 6.012s-3.757 2.49-6.012 2.49h-13.604c-2.255 0-4.418-0.896-6.012-2.49s-2.49-3.757-2.49-6.012z"></path>
<path fill="none" stroke="#727d57" style="stroke: var(--color1, #727d57)" stroke-linejoin="round" stroke-linecap="round" stroke-miterlimit="4" stroke-width="1.3043" d="M25.701 6.663l0.017-0.019"></path>
</symbol>
<symbol id="icon-location" viewBox="0 0 32 32">
<path fill="#727d57" style="fill: var(--color1, #727d57)" d="M16.002 2.527c2.866 0 5.614 1.138 7.64 3.165s3.165 4.775 3.165 7.64c0 4.566-3.208 9.542-9.542 14.981-0.352 0.302-0.801 0.469-1.265 0.468s-0.913-0.167-1.265-0.471l-0.419-0.364c-6.053-5.297-9.12-10.151-9.12-14.615 0-2.866 1.138-5.614 3.165-7.64s4.775-3.165 7.64-3.165zM16.002 4.189c-2.425 0-4.75 0.963-6.465 2.678s-2.678 4.040-2.678 6.465c0 3.881 2.824 8.353 8.549 13.362l0.413 0.358c0.050 0.043 0.114 0.067 0.181 0.067s0.13-0.024 0.181-0.067c6.002-5.155 8.962-9.747 8.962-13.72 0-1.201-0.236-2.39-0.696-3.499s-1.133-2.117-1.982-2.966c-0.849-0.849-1.857-1.522-2.966-1.982s-2.298-0.696-3.499-0.696zM16.002 9.176c1.102 0 2.159 0.438 2.939 1.217s1.217 1.836 1.217 2.939c0 1.102-0.438 2.159-1.217 2.939s-1.836 1.217-2.939 1.217c-1.102 0-2.159-0.438-2.939-1.217s-1.217-1.836-1.217-2.939c0-1.102 0.438-2.159 1.217-2.939s1.836-1.217 2.939-1.217zM16.002 10.838c-0.661 0-1.296 0.263-1.763 0.73s-0.73 1.102-0.73 1.763 0.263 1.296 0.73 1.763c0.468 0.468 1.102 0.73 1.763 0.73s1.296-0.263 1.763-0.73c0.468-0.468 0.73-1.102 0.73-1.763s-0.263-1.296-0.73-1.763c-0.468-0.468-1.102-0.73-1.763-0.73z"></path>
</symbol>
<symbol id="icon-mail" viewBox="0 0 32 32">
<path fill="none" stroke="#727d57" style="stroke: var(--color1, #727d57)" stroke-linejoin="round" stroke-linecap="round" stroke-miterlimit="4" stroke-width="0.9697" d="M3.757 7.822c0.242-0.242 0.571-0.379 0.914-0.379v-0.019h22.665c0.343 0 0.672 0.136 0.914 0.379M3.757 7.822c-0.242 0.242-0.379 0.571-0.379 0.914v14.617c0 0.343 0.136 0.672 0.379 0.914s0.571 0.379 0.914 0.379h22.665c0.343 0 0.672-0.136 0.914-0.379s0.379-0.571 0.379-0.914v-14.636c0-0.343-0.136-0.672-0.379-0.914M3.757 7.822l12.247 9.551 12.247-9.57"></path>
</symbol>
<symbol id="icon-paints" viewBox="0 0 36 32">
<path fill="#727d57" style="fill: var(--color1, #727d57)" d="M9.731 13.672c0.063-0.129 0.239-0.435 0.519-0.544 0.203-0.069 0.461-0.030 0.766 0.119l0.127 0.069c0.094 0.049 0.189 0.099 0.286 0.139l0.881 0.445-0.033-0.119c2.126 0.643 4.487 0.089 6.106-1.533 1.814-1.81 2.303-4.511 1.271-6.836l0.049-0.079-0.246-0.317c-0.022-0.040-0.044-0.079-0.066-0.109l-0.025-0.040c-0.19-0.366-0.26-0.712-0.182-0.91 0.055-0.129 0.204-0.247 0.444-0.326 0.655-0.129 1.338-0.208 2.031-0.228 3.526-0.129 6.836 1.177 9.319 3.66 2.375 2.374 3.683 5.53 3.683 8.894 0 3.354-1.308 6.51-3.683 8.884-2.487 2.493-5.799 3.799-9.32 3.68-3.197-0.109-6.204-1.415-8.465-3.68-2.922-2.918-4.215-7.093-3.464-11.169zM12.282 25.761c2.493 2.493 5.808 3.927 9.334 4.046 0.155 0.010 0.31 0.010 0.463 0.010 3.665 0 7.219-1.464 9.813-4.056 2.62-2.622 4.062-6.104 4.062-9.804 0-3.71-1.442-7.192-4.062-9.804-2.737-2.74-6.387-4.175-10.276-4.046-0.779 0.030-1.545 0.119-2.281 0.267l-0.075 0.020c-0.793 0.257-1.129 0.732-1.27 1.078-0.306 0.762 0.017 1.573 0.248 2.018l0.049 0.079c0.020 0.030 0.038 0.059 0.054 0.089l0.019 0.049 0.015 0.020c0.944 1.88 0.585 4.125-0.903 5.609-1.546 1.543-3.948 1.86-5.844 0.772l-0.969-0.554v0.257c-0.295-0.030-0.581 0.010-0.853 0.109-0.811 0.297-1.192 1.068-1.29 1.306l-0.040 0.129c-0.861 4.521 0.562 9.161 3.805 12.406z"></path>
<path fill="#727d57" style="fill: var(--color1, #727d57)" d="M12.535 20.3c-0.525-0.307-0.9-0.791-1.059-1.375s-0.076-1.197 0.228-1.731c0.304-0.524 0.792-0.9 1.378-1.059 1.211-0.317 2.458 0.406 2.782 1.613 0.157 0.584 0.077 1.197-0.227 1.721s-0.792 0.9-1.38 1.059c-0.585 0.158-1.196 0.079-1.722-0.228zM14.426 21.151c0.753-0.198 1.381-0.683 1.771-1.355 0.389-0.683 0.493-1.464 0.292-2.216-0.416-1.553-2.019-2.483-3.572-2.058-0.753 0.198-1.381 0.683-1.772 1.355-0.389 0.673-0.493 1.464-0.29 2.216s0.684 1.375 1.359 1.771c0.449 0.257 0.948 0.386 1.451 0.386 0.253 0 0.51-0.030 0.761-0.099z"></path>
<path fill="#727d57" style="fill: var(--color1, #727d57)" d="M17.243 23.664c0.325-1.217 1.572-1.929 2.782-1.613 0.362 0.099 0.686 0.277 0.961 0.534 0.615 0.574 0.863 1.434 0.646 2.256-0.11 0.406-0.333 0.772-0.646 1.069-0.578 0.534-1.376 0.732-2.136 0.534-0.587-0.158-1.076-0.534-1.379-1.059-0.305-0.524-0.385-1.138-0.228-1.721zM16.911 25.702c0.389 0.683 1.018 1.167 1.771 1.365 0.251 0.069 0.506 0.099 0.759 0.099 0.727 0 1.434-0.277 1.985-0.791 0.401-0.366 0.688-0.841 0.829-1.375 0.278-1.039-0.039-2.147-0.829-2.879-0.348-0.326-0.775-0.564-1.234-0.692-1.553-0.416-3.155 0.514-3.571 2.068-0.202 0.752-0.099 1.533 0.291 2.206z"></path>
<path fill="#727d57" style="fill: var(--color1, #727d57)" d="M29.030 24.070c-0.429 0.425-1 0.663-1.607 0.663s-1.177-0.237-1.606-0.663c-0.885-0.89-0.885-2.335 0-3.215 0.428-0.425 0.998-0.663 1.606-0.663s1.177 0.237 1.607 0.663c0.427 0.425 0.664 0.999 0.664 1.603 0 0.613-0.236 1.177-0.664 1.613zM27.423 19.549c-0.78 0-1.512 0.297-2.062 0.851-1.138 1.138-1.138 2.988 0 4.125 0.55 0.544 1.282 0.851 2.062 0.851 0.779 0 1.512-0.307 2.063-0.851 0.55-0.554 0.854-1.286 0.854-2.068 0-0.772-0.304-1.504-0.854-2.058-0.551-0.554-1.284-0.851-2.063-0.851z"></path>
<path fill="#727d57" style="fill: var(--color1, #727d57)" d="M29.43 12.614c1.21-0.326 2.457 0.396 2.781 1.603 0.158 0.584 0.077 1.197-0.227 1.721s-0.792 0.9-1.379 1.059c-1.208 0.326-2.457-0.396-2.781-1.603s0.396-2.463 1.606-2.78zM27.201 15.562c0.349 1.296 1.53 2.157 2.818 2.157 0.249 0 0.503-0.030 0.754-0.099 0.753-0.198 1.382-0.683 1.771-1.355s0.493-1.464 0.291-2.216c-0.416-1.553-2.017-2.483-3.571-2.058-1.553 0.416-2.478 2.018-2.062 3.571z"></path>
<path fill="#727d57" style="fill: var(--color1, #727d57)" d="M22.061 8.211c0.325-1.217 1.573-1.929 2.782-1.613 1.21 0.327 1.93 1.573 1.607 2.79-0.157 0.584-0.533 1.068-1.059 1.375s-1.138 0.386-1.722 0.228c-0.587-0.158-1.077-0.534-1.381-1.058s-0.385-1.138-0.226-1.721zM23.501 11.614c0.252 0.069 0.506 0.099 0.76 0.099 0.506 0 1.004-0.129 1.453-0.396 0.675-0.386 1.157-1.009 1.359-1.771 0.416-1.553-0.509-3.146-2.064-3.571-1.552-0.415-3.155 0.514-3.571 2.068-0.202 0.752-0.099 1.533 0.292 2.216 0.389 0.673 1.019 1.158 1.771 1.355z"></path>
<path fill="#727d57" style="fill: var(--color1, #727d57)" d="M5.916 5.035c0.157 0.564 0.397 1.425 0.22 1.712-0.020 0.040-0.048 0.069-0.129 0.089-0.429 0.089-0.826-0.979-1.118-1.761-0.344-0.92-0.617-1.652-1.168-1.652-0.011 0-0.022 0-0.032 0.010-0.557 0.020-0.761 0.574-0.925 1.019-0.22 0.594-0.365 0.88-0.747 0.861-0.291-0.010-0.523-0.158-0.709-0.465 0.685-1.771 2.213-3.166 2.753-3.621 0.384 0.326 1.261 1.108 1.984 2.176-0.072 0.020-0.14 0.059-0.199 0.119-0.273 0.277-0.137 0.762 0.070 1.514zM6.688 7.083c0.086-0.139 0.128-0.307 0.142-0.495-0.007 2.523-0.931 2.988-2.77 2.988-1.837 0-2.769-0.465-2.769-3.007 0-0.267 0.029-0.524 0.079-0.782 0.189 0.099 0.399 0.158 0.626 0.168 0.888 0.030 1.18-0.762 1.373-1.286 0.103-0.277 0.22-0.594 0.321-0.604 0.162 0.079 0.422 0.772 0.595 1.237 0.386 1.029 0.819 2.186 1.653 2.186 0.064 0 0.133-0.010 0.202-0.020 0.238-0.059 0.428-0.188 0.548-0.386zM5.345 19.44c-0.209 3.354-0.585 9.418-1.245 10.694-0.704-1.454-1.154-7.796-1.353-10.625-0.193-2.73-0.091-5.619 0.289-8.152 0.027-0.178 0.056-0.356 0.088-0.544 0.319 0.040 0.642 0.049 0.959 0.049h0.004c0.303 0 0.612-0.010 0.919-0.049 0.025 0.158 0.046 0.307 0.068 0.475l0.076 0.554h0.003c0.28 2.394 0.348 5.075 0.192 7.598zM4.472 0.316l-0.206 0.247-0.009-0.010 0.195-0.247-0.39-0.307-0.39 0.297c-0.15 0.119-3.672 2.81-3.672 6.272 0 2.325 0.808 3.413 1.873 3.908-0.042 0.237-0.080 0.465-0.113 0.693-0.393 2.622-0.5 5.609-0.301 8.429 0.667 9.398 1.192 11.872 2.554 12.030l0.716 0.079v-0.336c1.047-0.752 1.41-3.888 1.903-11.852 0.174-2.81 0.078-5.787-0.271-8.409l-0.083-0.554h-0.006c-0.005-0.030-0.009-0.059-0.014-0.079 1.056-0.495 1.862-1.583 1.862-3.908 0-3.334-3.27-5.956-3.65-6.252z"></path>
</symbol>
<symbol id="icon-people" viewBox="0 0 48 32">
<path fill="#727d57" style="fill: var(--color1, #727d57)" d="M33.241 26.342c-0.42-1.69-1.159-3.586-2.458-5.196 0.687-1.5 1.48-2.537 1.967-3.090 4.325 3.016 8.737 0.921 10.319-0.032 2.459 2.64 2.931 6.628 3.018 8.316l-12.847 0.003zM15.514 30.036c0.293-4.447 2.33-7.234 3.26-8.286 4.325 3.016 8.737 0.92 10.319-0.032 2.459 2.64 2.931 6.627 3.017 8.316l-16.596 0.003zM14.484 26.34l-12.797 0.003c0.293-4.447 2.331-7.234 3.26-8.286 4.325 3.016 8.737 0.921 10.319-0.032 0.848 0.911 1.457 1.983 1.897 3.065-0.823 1.018-1.965 2.766-2.678 5.251zM47.758 27.193c0.010-0.284 0.18-6.986-4.022-10.835-0.296-0.272-0.744-0.29-1.063-0.046-0.047 0.037-4.936 3.709-9.485 0.004-0.312-0.253-0.761-0.246-1.064 0.018-0.098 0.085-1.433 1.273-2.595 3.569-0.268-0.116-0.588-0.085-0.832 0.1-0.2 0.153-4.96 3.693-9.486 0.006-0.222-0.181-0.512-0.227-0.771-0.145-0.584-1.254-1.39-2.482-2.51-3.506-0.295-0.272-0.743-0.29-1.061-0.046-0.049 0.037-4.936 3.709-9.485 0.004-0.312-0.253-0.761-0.246-1.064 0.018-0.173 0.149-4.218 3.745-4.32 10.825-0.003 0.221 0.083 0.434 0.239 0.592s0.367 0.246 0.589 0.246l13.277-0.003c-0.157 0.882-0.262 1.828-0.277 2.857-0.003 0.221 0.083 0.434 0.239 0.593 0.155 0.158 0.367 0.245 0.589 0.245l18.299-0.004c0.447 0 0.811-0.353 0.827-0.798 0.004-0.116 0.033-1.285-0.212-2.891l13.362-0.003c0.447 0 0.812-0.354 0.826-0.799z"></path>
<path fill="#727d57" style="fill: var(--color1, #727d57)" d="M42.148 12.186c-1.165 1.167-2.715 1.811-4.359 1.811h-0.003c-3.402 0-6.17-2.768-6.172-6.169-0.001-1.647 0.642-3.196 1.808-4.363 1.168-1.168 2.717-1.811 4.363-1.811 3.402 0 6.17 2.768 6.173 6.169 0 1.645-0.643 3.195-1.811 4.363zM28.171 15.879c-1.167 1.167-2.714 1.809-4.359 1.809h-0.003c-3.402 0-6.17-2.767-6.172-6.168-0.001-1.647 0.642-3.197 1.808-4.363 1.168-1.168 2.717-1.812 4.363-1.812 3.402 0 6.17 2.768 6.173 6.17 0 1.645-0.643 3.194-1.811 4.363zM14.343 12.186c-1.165 1.167-2.716 1.811-4.359 1.811h-0.003c-3.402 0-6.17-2.768-6.172-6.169-0.001-1.647 0.642-3.196 1.808-4.363 1.168-1.168 2.717-1.811 4.363-1.811 3.402 0 6.17 2.768 6.173 6.169 0 1.645-0.643 3.195-1.811 4.363zM37.786 0c-2.088 0-4.053 0.815-5.532 2.296-1.232 1.233-1.996 2.805-2.218 4.503-1.431-1.883-3.686-3.107-6.227-3.107-2.088 0-4.054 0.816-5.532 2.296-0.204 0.205-0.393 0.421-0.571 0.643-0.579-3.749-3.818-6.631-7.724-6.631-2.088 0-4.053 0.815-5.532 2.296-1.478 1.478-2.293 3.443-2.292 5.531 0.001 4.313 3.511 7.821 7.824 7.821h0.003c2.087 0 4.050-0.815 5.529-2.295 0.205-0.204 0.393-0.42 0.572-0.643 0.577 3.749 3.817 6.631 7.724 6.631h0.003c2.087 0 4.050-0.815 5.529-2.295 1.233-1.235 1.997-2.807 2.219-4.505 1.43 1.883 3.686 3.106 6.227 3.106h0.003c2.087 0 4.050-0.815 5.529-2.295 1.48-1.48 2.295-3.444 2.293-5.531-0.003-4.313-3.511-7.822-7.824-7.822z"></path>
</symbol>
<symbol id="icon-phone" viewBox="0 0 32 32">
<path fill="none" stroke="#727d57" style="stroke: var(--color1, #727d57)" stroke-linejoin="round" stroke-linecap="round" stroke-miterlimit="4" stroke-width="0.9697" d="M25.707 10.811c-0.922 3.598-2.794 6.882-5.42 9.508s-5.91 4.498-9.508 5.42c-2.768 0.705-5.12-1.676-5.12-4.533v-1.293c0-0.714 0.581-1.287 1.29-1.358 1.177-0.116 2.333-0.394 3.434-0.826l1.965 1.965c3.2-1.534 5.78-4.114 7.314-7.314l-1.965-1.965c0.433-1.101 0.711-2.257 0.827-3.434 0.070-0.711 0.643-1.29 1.356-1.29h1.293c2.857 0 5.238 2.352 4.533 5.12z"></path>
</symbol>
<symbol id="icon-plant" viewBox="0 0 32 32">
<path d="M4.547 29.932c0-1.548 3.815-4.79 6.41-5.527 3.281-0.958 4.349-0.958 8.852 0 4.807 0.958 4.807 2.211 0.153 5.38-2.518 1.769-4.044 2.211-7.249 2.211-4.96 0.074-8.165-0.737-8.165-2.063zM9.899 1.916c-4.731 2.579-6.791 4.569-8.47 8.033-1.526 3.169-1.908 8.18-0.763 9.875 1.755 2.579 10.378-3.685 12.743-9.212 1.145-2.579 1.45-10.612 0.534-10.612-0.382 0-2.137 0.884-4.044 1.916zM23.836 9.514c-3.129 1.4-6.105 5.232-5.189 6.706 1.374 2.211 9.538-0.958 11.828-4.569 0.839-1.326 1.526-2.653 1.526-3.021 0-1.032-4.96-0.442-8.165 0.884z"></path>
</symbol>
<symbol id="icon-puzzle" viewBox="0 0 35 32">
<path fill="#727d57" style="fill: var(--color1, #727d57)" d="M31.522 10.419c-0.121-0.272-0.285-0.523-0.493-0.745-0.508-0.545-1.199-0.85-1.944-0.86-0.741-0.005-1.427 0.272-1.946 0.793-0.562 0.477-0.898 1.143-0.948 1.877-0.051 0.743 0.197 1.456 0.698 2.006 0.201 0.222 0.441 0.409 0.704 0.552l-1.793 1.633-1.809-1.939c0.353-0.119 0.677-0.309 0.954-0.563 0.745-0.678 1.050-1.707 0.796-2.682-0.265-1.020-1.098-1.786-2.227-2.051-0.17-0.039-0.351-0.048-0.527-0.024-1.111 0.155-1.964 0.775-2.35 1.688l-1.756-1.925 2.082-1.943c0.088-0.080 0.158-0.179 0.21-0.291 0.125-0.225 0.151-0.492 0.069-0.74-0.086-0.259-0.281-0.463-0.533-0.559-0.233-0.088-0.435-0.226-0.601-0.408-0.578-0.636-0.545-1.598 0.060-2.178 0.631-0.561 1.613-0.515 2.191 0.103 0.168 0.181 0.289 0.394 0.358 0.63 0.075 0.261 0.262 0.473 0.514 0.579 0.24 0.102 0.508 0.098 0.742-0.010 0.116-0.042 0.218-0.103 0.304-0.182l2.108-1.921 1.778 1.905c-0.943 0.311-1.63 1.112-1.874 2.208-0.037 0.169-0.044 0.35-0.018 0.526 0.173 1.147 0.869 2.040 1.863 2.387 0.952 0.331 2.002 0.111 2.74-0.577 0.273-0.256 0.489-0.564 0.637-0.905l1.786 1.961-1.773 1.654zM32.242 5.923c-0.025-0.059-0.062-0.113-0.105-0.161l-0.034-0.036c-0.227-0.244-0.57-0.344-0.89-0.262-0.328 0.082-0.585 0.339-0.67 0.668-0.075 0.286-0.23 0.545-0.446 0.748-0.428 0.399-1.037 0.528-1.59 0.335-0.598-0.208-1.004-0.749-1.114-1.48-0.006-0.037-0.003-0.079 0.003-0.115 0.175-0.784 0.663-1.306 1.34-1.43 0.335-0.062 0.608-0.299 0.713-0.619 0.103-0.313 0.027-0.658-0.198-0.899l-2.229-2.389c-0.126-0.134-0.285-0.226-0.463-0.266-0.047-0.011-0.093-0.016-0.141-0.015-0.222 0.005-0.434 0.090-0.598 0.238l-2.123 1.935c-0.122-0.288-0.293-0.55-0.51-0.782-0.993-1.065-2.687-1.144-3.79-0.162-1.070 1.023-1.127 2.682-0.13 3.777 0.214 0.235 0.461 0.426 0.739 0.572l-2.097 1.957c-0.051 0.047-0.084 0.094-0.103 0.122-0.106 0.138-0.17 0.297-0.186 0.461-0.005 0.047-0.004 0.094 0.003 0.142 0.028 0.182 0.108 0.349 0.23 0.481l2.199 2.414c0.223 0.245 0.56 0.35 0.88 0.272 0.327-0.079 0.587-0.333 0.674-0.662 0.179-0.665 0.739-1.109 1.533-1.219 0.037-0.005 0.079-0.003 0.114 0.005 0.723 0.169 1.229 0.617 1.388 1.23 0.147 0.567-0.030 1.164-0.463 1.558-0.218 0.2-0.489 0.333-0.78 0.383-0.336 0.059-0.613 0.294-0.722 0.613-0.107 0.314-0.035 0.663 0.19 0.909l0.034 0.036c0.043 0.048 0.095 0.088 0.152 0.118l2.106 2.257c0.146 0.157 0.345 0.258 0.561 0.285 0.023 0.002 0.047 0.003 0.070 0.003 0.026 0 0.052-0.001 0.078-0.005 0.101-0.014 0.198-0.047 0.298-0.099 0.047-0.025 0.116-0.064 0.188-0.13l2.302-2.098c0.028-0.025 0.053-0.054 0.077-0.086 0.168-0.231 0.22-0.533 0.138-0.807-0.080-0.271-0.278-0.484-0.541-0.583-0.231-0.087-0.433-0.224-0.6-0.408-0.291-0.32-0.435-0.732-0.406-1.164s0.23-0.822 0.564-1.101c0.014-0.012 0.028-0.025 0.042-0.038 0.304-0.31 0.713-0.468 1.142-0.472 0.433 0.005 0.833 0.182 1.128 0.498 0.168 0.181 0.29 0.394 0.359 0.631 0.077 0.27 0.272 0.485 0.537 0.587 0.267 0.104 0.572 0.077 0.816-0.073 0.033-0.019 0.063-0.043 0.091-0.069l2.277-2.124c0.133-0.124 0.224-0.283 0.266-0.459 0.012-0.050 0.017-0.101 0.014-0.153-0.008-0.218-0.093-0.426-0.236-0.582l-2.080-2.284z"></path>
<path fill="#727d57" style="fill: var(--color1, #727d57)" d="M2.713 27.316c-0.583-0.008-1.12-0.316-1.396-0.832-0.297-0.558-0.23-1.229 0.186-1.843 0.020-0.029 0.047-0.057 0.077-0.078 0.605-0.423 1.273-0.502 1.831-0.217 0.286 0.145 0.62 0.131 0.892-0.038 0.275-0.17 0.439-0.464 0.436-0.787l-0.014-2.375 3.026-0.018c0.54-0.003 1.035-0.3 1.292-0.774 0.259-0.479 0.238-1.063-0.059-1.524-0.101-0.157-0.156-0.342-0.157-0.531-0.001-0.269 0.103-0.522 0.292-0.713 0.362-0.363 0.932-0.391 1.458-0.049 0.188 0.283 0.416 0.791 0.103 1.286-0.292 0.461-0.311 1.044-0.049 1.519 0.258 0.469 0.755 0.761 1.299 0.761l2.663-0.016 0.012 2.107c-0.857-0.301-1.839-0.144-2.672 0.439-0.14 0.098-0.268 0.226-0.367 0.372-0.648 0.957-0.741 2.082-0.251 3.009 0.472 0.888 1.388 1.44 2.408 1.44 0.311-0.002 0.622-0.058 0.913-0.164l0.014 2.436c-0.023 0.026-0.045 0.052-0.062 0.082l-9.805 0.058-0.017-2.917c-0.003-0.325-0.17-0.619-0.45-0.786-0.274-0.163-0.604-0.173-0.883-0.025-0.225 0.118-0.467 0.179-0.72 0.181zM5.535 17.661c1.007-0.007 1.922-0.566 2.386-1.461 0.484-0.932 0.38-2.058-0.281-3.010-0.1-0.143-0.229-0.271-0.374-0.37-0.834-0.568-1.806-0.715-2.645-0.418l-0.016-2.653 2.917-0.018c0.325-0.003 0.619-0.17 0.786-0.45 0.164-0.272 0.173-0.603 0.025-0.883-0.118-0.224-0.179-0.466-0.181-0.72-0.003-0.421 0.159-0.817 0.457-1.117s0.693-0.463 1.115-0.463c0 0 0.001 0 0.002 0 0.369 0 0.74 0.124 1.099 0.367 0.031 0.022 0.060 0.049 0.081 0.079 0.423 0.605 0.502 1.273 0.217 1.833-0.144 0.284-0.131 0.616 0.036 0.889 0.168 0.274 0.461 0.437 0.788 0.437l2.918-0.017 0.017 2.907c0.003 0.502 0.413 0.912 0.916 0.912 0.14 0 0.281-0.034 0.415-0.101 0.549-0.283 1.21-0.211 1.817 0.203 0.032 0.022 0.060 0.050 0.081 0.080 0.421 0.608 0.497 1.279 0.205 1.839-0.27 0.52-0.801 0.844-1.395 0.847-0.245 0-0.48-0.055-0.693-0.162-0.339-0.173-0.781-0.1-1.052 0.174-0.174 0.176-0.269 0.409-0.268 0.655l0.016 2.65c-0.056 0.048-0.109 0.103-0.153 0.166h-0.001v0.001c-0.021 0.029-0.039 0.060-0.056 0.090l-2.79 0.017c-0.129 0-0.242-0.064-0.301-0.172-0.062-0.114-0.057-0.253 0.014-0.365 0.487-0.773 0.429-1.737-0.16-2.585-0.060-0.084-0.136-0.16-0.225-0.22-0.458-0.311-0.937-0.47-1.425-0.47-0.574 0-1.112 0.224-1.517 0.631s-0.626 0.947-0.622 1.521c0.003 0.405 0.12 0.799 0.338 1.137 0.072 0.112 0.078 0.254 0.016 0.368-0.060 0.11-0.175 0.179-0.301 0.18l-3.078 0.018-0.014-2.492c0.279 0.095 0.572 0.143 0.882 0.143zM18.294 19.451l-2.233 0.014-0.012-2.099c0.281 0.097 0.578 0.145 0.891 0.145 0.643-0.003 1.247-0.234 1.721-0.632-0.535 0.829-0.665 1.744-0.366 2.572zM19.412 20.143c0.166-0.272 0.177-0.604 0.033-0.888-0.166-0.324-0.361-0.991 0.202-1.817 0.023-0.032 0.051-0.062 0.081-0.082 0.365-0.253 0.74-0.381 1.117-0.381 0.86 0 1.564 0.701 1.57 1.561 0.002 0.248-0.053 0.486-0.163 0.706-0.142 0.28-0.126 0.608 0.040 0.877 0.17 0.274 0.463 0.439 0.791 0.439l2.906-0.018 0.015 2.668c-0.891-0.4-1.971-0.275-2.87 0.35-0.144 0.1-0.272 0.229-0.372 0.376-0.65 0.958-0.744 2.082-0.253 3.011 0.47 0.889 1.387 1.44 2.408 1.44 0.389-0.002 0.769-0.088 1.117-0.248l0.016 2.666-2.492 0.015c0.096-0.282 0.144-0.582 0.143-0.882-0.008-1.483-1.222-2.69-2.706-2.69-0.603 0-1.213 0.202-1.763 0.584-0.144 0.099-0.272 0.228-0.371 0.374-0.578 0.847-0.724 1.792-0.42 2.645l-2.653 0.015-0.018-2.916c-0.003-0.505-0.413-0.915-0.915-0.915-0.146 0-0.29 0.036-0.418 0.103-0.224 0.119-0.466 0.179-0.73 0.181-0.583 0-1.114-0.32-1.388-0.836-0.296-0.557-0.227-1.228 0.186-1.838 0.021-0.030 0.049-0.059 0.079-0.080 0.609-0.426 1.279-0.499 1.83-0.218 0.345 0.177 0.789 0.105 1.062-0.171 0.173-0.174 0.268-0.406 0.266-0.652l-0.017-2.918 2.908-0.017c0.32-0.002 0.611-0.167 0.778-0.442zM3.649 31.089c0.004 0.504 0.416 0.911 0.918 0.911 0.001 0 0.003 0 0.005 0l10.56-0.062c0.028 0 0.055-0.006 0.082-0.010 0.111 0.047 0.232 0.073 0.361 0.073l3.276-0.019c0.039 0 0.076-0.004 0.114-0.012 0.278-0.058 0.518-0.246 0.641-0.504s0.118-0.55-0.012-0.804c-0.166-0.324-0.36-0.993 0.203-1.82 0.021-0.030 0.049-0.060 0.080-0.080 0.365-0.253 0.741-0.381 1.116-0.381 0.861 0 1.566 0.701 1.57 1.561 0.001 0.248-0.054 0.487-0.164 0.706-0.127 0.252-0.127 0.542-0.003 0.796 0.125 0.257 0.368 0.444 0.648 0.5 0.038 0.008 0.073 0.012 0.114 0.011l3.111-0.018c0.246-0.001 0.476-0.098 0.649-0.273s0.266-0.406 0.265-0.65l-0.018-3.253c-0.003-0.509-0.406-0.908-0.918-0.908-0.178 0-0.353 0.052-0.505 0.15-0.249 0.16-0.539 0.245-0.845 0.247-0.583 0-1.115-0.321-1.388-0.837-0.296-0.557-0.227-1.228 0.188-1.839 0.021-0.031 0.048-0.059 0.079-0.080 0.368-0.255 0.745-0.385 1.122-0.385 0.296 0 0.583 0.084 0.833 0.242 0.357 0.225 0.854 0.17 1.147-0.125 0.17-0.17 0.262-0.399 0.26-0.643l-0.018-3.266c-0.004-0.502-0.416-0.912-0.924-0.912l-2.793 0.017c0.099-0.285 0.147-0.585 0.146-0.892-0.010-1.483-1.223-2.69-2.706-2.69-0.598 0-1.201 0.198-1.748 0.572 0.084-0.114 0.162-0.233 0.229-0.361 0.485-0.934 0.381-2.058-0.279-3.009-0.099-0.143-0.227-0.271-0.374-0.371-0.831-0.568-1.81-0.716-2.654-0.415l-0.017-2.794c-0.003-0.503-0.413-0.912-0.923-0.912l-2.8 0.016c0.309-0.865 0.156-1.821-0.439-2.672-0.098-0.141-0.226-0.268-0.372-0.368-0.546-0.37-1.147-0.565-1.739-0.565-0.001 0-0.001 0-0.003 0-0.726 0-1.408 0.284-1.92 0.798s-0.791 1.198-0.787 1.925c0.003 0.311 0.059 0.621 0.166 0.912l-2.803 0.016c-0.245 0.002-0.474 0.099-0.647 0.273s-0.268 0.405-0.265 0.65l0.020 3.277c0 0.038 0.005 0.075 0.011 0.112 0.088 0.423 0.465 0.731 0.895 0.731 0.144 0 0.282-0.034 0.413-0.101 0.554-0.283 1.211-0.212 1.82 0.203 0.030 0.021 0.060 0.050 0.080 0.080 0.422 0.609 0.497 1.279 0.206 1.839-0.27 0.52-0.801 0.844-1.396 0.848-0.244 0-0.479-0.055-0.7-0.166-0.126-0.062-0.259-0.094-0.397-0.094-0.435 0-0.812 0.312-0.896 0.743-0.007 0.037-0.010 0.075-0.010 0.112l0.017 3.113c0.001 0.087 0.023 0.168 0.059 0.24-0.001 0.014-0.005 0.027-0.005 0.041l0.016 2.676c-0.865-0.309-1.82-0.155-2.672 0.439-0.142 0.099-0.27 0.228-0.368 0.372-0.65 0.96-0.743 2.087-0.247 3.015 0.475 0.89 1.399 1.44 2.405 1.433 0.311-0.002 0.621-0.059 0.912-0.165l0.016 2.803z"></path>
</symbol>
<symbol id="icon-sun" viewBox="0 0 32 32">
<path d="M0.634 20.655c-2.341-8.174 1.997-16.771 9.847-19.66 8.746-3.171 18.731 1.55 20.728 9.724 1.722 6.976 0.62 12.895-3.168 16.982-3.030 3.312-5.509 4.298-10.811 4.298-8.401 0-14.599-4.228-16.596-11.345zM28.179 16.92c0-4.721-1.171-7.328-4.614-10.147-2.341-1.903-3.305-2.184-7.575-2.396-6.060-0.282-8.814 1.198-10.811 5.708-3.925 8.667 1.24 18.039 10.192 18.673 7.781 0.493 12.877-4.228 12.808-11.838zM14.506 20.164c-1.79-0.705-2.754-3.664-1.859-5.708 1.102-2.537 5.302-2.537 6.404-0.070 1.653 3.594-1.171 7.117-4.545 5.778z"></path>
</symbol>
<symbol id="icon-telegram" viewBox="0 0 33 32">
<path fill="#727d57" style="fill: var(--color1, #727d57)" d="M29.442 4.112c-0.288-0.238-0.634-0.394-1.003-0.452s-0.747-0.014-1.093 0.126l-23.889 9.644c-0.386 0.159-0.715 0.431-0.942 0.781s-0.344 0.761-0.332 1.178c0.011 0.417 0.149 0.821 0.395 1.158s0.589 0.591 0.983 0.729l5.155 1.789 2.793 9.235c0.005 0.019 0.023 0.031 0.031 0.048 0.029 0.074 0.071 0.141 0.124 0.2 0.081 0.090 0.185 0.156 0.301 0.191 0.013 0.005 0.023 0.017 0.036 0.020h0.008l0.004 0.001c0.103 0.022 0.21 0.017 0.311-0.016 0.011-0.003 0.021-0.003 0.033-0.007 0.096-0.034 0.184-0.089 0.255-0.163 0.008-0.009 0.021-0.011 0.029-0.019l4.017-4.435 5.863 4.54c0.356 0.279 0.795 0.429 1.247 0.429 0.979 0 1.823-0.685 2.024-1.641l4.349-21.357c0.074-0.363 0.048-0.738-0.075-1.087s-0.339-0.658-0.623-0.894v0.001zM12.966 20.819l-0.943 4.583-1.967-6.504 9.753-5.080-6.663 6.664c-0.092 0.092-0.155 0.21-0.181 0.337zM24.485 27.182c-0.025 0.121-0.081 0.233-0.162 0.327s-0.185 0.164-0.301 0.205c-0.113 0.044-0.236 0.057-0.356 0.039s-0.234-0.067-0.329-0.143l-6.351-4.919c-0.133-0.102-0.299-0.151-0.466-0.136s-0.322 0.092-0.435 0.216l-2.796 3.081 0.941-4.569 9.585-9.587c0.112-0.113 0.18-0.262 0.193-0.42s-0.033-0.316-0.127-0.444c-0.094-0.128-0.231-0.219-0.386-0.255s-0.317-0.016-0.459 0.057l-13.817 7.197-5.223-1.816c-0.138-0.046-0.259-0.133-0.346-0.251s-0.134-0.259-0.136-0.405c-0.007-0.147 0.033-0.293 0.112-0.416s0.196-0.22 0.333-0.274l23.885-9.644c0.122-0.052 0.257-0.069 0.388-0.049s0.255 0.077 0.356 0.163c0.101 0.081 0.176 0.189 0.219 0.311s0.051 0.253 0.023 0.38l-4.348 21.352z"></path>
</symbol>
<symbol id="icon-tiktok" viewBox="0 0 33 32">
<path fill="none" stroke="#727d57" style="stroke: var(--color1, #727d57)" stroke-linejoin="round" stroke-linecap="round" stroke-miterlimit="4" stroke-width="1.3043" d="M31.652 9.198v13.604c0 2.255-0.896 4.418-2.49 6.012s-3.757 2.49-6.012 2.49h-13.604c-2.255 0-4.418-0.896-6.012-2.49s-2.49-3.757-2.49-6.012v-13.604c0-2.255 0.896-4.418 2.49-6.012s3.757-2.49 6.012-2.49h13.604c2.255 0 4.418 0.896 6.012 2.49s2.49 3.757 2.49 6.012z"></path>
<path fill="none" stroke="#727d57" style="stroke: var(--color1, #727d57)" stroke-linejoin="round" stroke-linecap="round" stroke-miterlimit="4" stroke-width="1.3043" d="M12.949 15.999c-1.009 0-1.995 0.299-2.834 0.86s-1.493 1.357-1.879 2.289c-0.386 0.932-0.487 1.958-0.29 2.947s0.683 1.899 1.396 2.612c0.713 0.713 1.622 1.199 2.612 1.396s2.015 0.096 2.947-0.29c0.932-0.386 1.729-1.040 2.289-1.879s0.86-1.825 0.86-2.834v-15.304c0.566 1.7 2.721 5.101 6.802 5.101"></path>
</symbol>
<symbol id="icon-uah" viewBox="0 0 21 32">
<path fill="#474745" style="fill: var(--color2, #474745)" d="M14.373 14.327h5.706v-3.346h-2.811c0.703-1.104 1.138-2.209 1.138-3.346 0-4.401-4.183-6.693-8.366-6.693-3.932 0-7.479 3.447-7.881 3.832l2.376 2.376c0.803-0.803 3.346-2.861 5.505-2.861 1.74 0 5.020 0.703 5.020 3.346 0 0.837-0.837 2.075-2.075 3.346h-12.984v3.346h9.42c-0.703 0.602-3.146 2.794-3.715 3.346h-5.706v3.346h2.811c-0.703 1.104-1.138 2.209-1.138 3.346 0 4.401 4.183 6.693 8.366 6.693 3.932 0 7.479-3.447 7.881-3.832l-2.376-2.376c-0.786 0.803-3.346 2.861-5.505 2.861-1.74 0-5.020-0.703-5.020-3.346 0-0.837 0.837-2.075 2.075-3.346h12.984v-3.346h-9.403l3.698-3.346z"></path>
</symbol>
<symbol id="icon-zernoLogo" viewBox="0 0 94 32">
<path fill="#727d57" style="fill: var(--color1, #727d57)" d="M-0.013 14.481c0.053-1.767 0.71-3.313 1.682-4.74 1.105-1.566 2.442-2.954 3.964-4.118 2.13-1.686 4.404-3.181 6.796-4.469 1.134-0.624 2.389-0.996 3.68-1.090 0.351-0.026 0.577 0.098 0.641 0.359s-0.034 0.5-0.342 0.665c-2.662 1.414-5.214 3.027-7.634 4.824-1.579 1.19-3.097 2.453-4.343 3.999-0.503 0.623-0.952 1.289-1.34 1.99-0.917 1.656-0.893 3.321 0.019 4.999 0.987 1.767 2.146 3.431 3.462 4.969 1.34 1.599 2.738 3.152 4.407 4.413 0.91 0.679 1.868 1.291 2.866 1.834 1.802 0.994 3.59 0.806 5.328-0.229 1.729-1.054 3.357-2.265 4.864-3.618 1.603-1.408 3.124-2.907 4.556-4.488 0.582-0.585 0.97-1.335 1.113-2.148 0.096-0.673-0.016-1.359-0.323-1.966-0.352-0.717-0.749-1.411-1.188-2.077-1.302-1.934-2.642-3.847-4.223-5.557-0.855-0.932-1.746-1.829-2.834-2.498-0.827-0.509-1.71-0.87-2.706-0.793-0.789 0.078-1.546 0.35-2.206 0.791-2.727 1.71-5.208 3.723-7.266 6.211-0.639 0.736-1.166 1.562-1.564 2.451-0.061 0.126-0.093 0.264-0.095 0.405s0.026 0.279 0.082 0.407c0.090 0.23 0.193 0.455 0.308 0.673 1.654 2.816 3.923 5.221 6.638 7.035 0.101 0.068 0.214 0.12 0.308 0.186 0.735 0.504 1.496 0.511 2.315 0.199 0.883-0.347 1.713-0.813 2.468-1.387 1.356-0.987 2.56-2.166 3.575-3.501 0.164-0.229 0.315-0.467 0.451-0.714 0.171-0.283 0.263-0.607 0.267-0.937s-0.080-0.656-0.243-0.944c-0.129-0.26-0.279-0.508-0.451-0.742-0.998-1.336-2.179-2.525-3.509-3.53-0.381-0.258-0.782-0.486-1.199-0.68-0.188-0.094-0.396-0.139-0.606-0.131s-0.414 0.068-0.595 0.176c-0.787 0.414-1.521 0.92-2.188 1.507-0.797 0.661-1.507 1.42-2.114 2.259-0.149 0.174-0.235 0.393-0.245 0.622s0.057 0.454 0.189 0.641c0.691 1.164 1.604 2.18 2.686 2.992 0.098 0.086 0.221 0.14 0.351 0.154s0.261-0.011 0.376-0.073c0.747-0.344 1.423-0.824 1.994-1.415 0.267-0.282 0.303-0.427 0.107-0.776-0.181-0.288-0.379-0.565-0.592-0.829-0.284-0.385-0.583-0.757-0.855-1.15-0.083-0.111-0.125-0.247-0.12-0.386s0.056-0.271 0.146-0.377c0.085-0.11 0.202-0.19 0.336-0.228s0.276-0.033 0.406 0.015c0.201 0.042 0.394 0.114 0.573 0.214 1.069 0.641 1.802 1.534 2.060 2.768 0.063 0.246 0.073 0.502 0.030 0.752s-0.138 0.488-0.278 0.699c-0.918 1.347-2.292 2.317-3.868 2.731-0.43 0.097-0.881 0.026-1.261-0.197-0.673-0.356-1.286-0.816-1.817-1.361-0.9-0.828-1.653-1.803-2.227-2.883-0.231-0.411-0.348-0.877-0.337-1.349s0.147-0.932 0.395-1.333c0.57-0.944 1.269-1.803 2.077-2.552 0.895-0.87 1.891-1.629 2.969-2.259 1.178-0.682 2.351-0.69 3.573-0.124 0.928 0.444 1.784 1.023 2.541 1.718 1.165 1.010 2.203 2.159 3.090 3.42 0.588 0.806 0.901 1.78 0.891 2.778-0.034 0.745-0.254 1.47-0.641 2.107-0.684 1.126-1.523 2.149-2.492 3.041-1.218 1.227-2.62 2.254-4.157 3.045-0.874 0.454-1.832 0.723-2.815 0.791-0.583 0.012-1.161-0.116-1.684-0.374-1.175-0.558-2.261-1.286-3.223-2.161-1.958-1.686-3.695-3.569-5.033-5.794-0.44-0.673-0.745-1.425-0.898-2.214-0.085-0.49-0.035-0.993 0.143-1.458 0.492-1.263 1.282-2.325 2.182-3.319 2.124-2.366 4.606-4.315 7.209-6.119 0.895-0.664 1.907-1.152 2.983-1.438 1.605-0.378 3.101-0.038 4.533 0.699 1.224 0.668 2.347 1.506 3.336 2.488 2.37 2.235 4.302 4.823 6.018 7.576 0.644 1.024 1.012 2.197 1.069 3.404 0.081 1.413-0.358 2.806-1.233 3.917-0.563 0.709-1.165 1.385-1.804 2.026-2.278 2.396-4.809 4.538-7.548 6.39-1.090 0.722-2.208 1.393-3.481 1.761-1.849 0.548-3.838 0.353-5.546-0.543-1.867-0.935-3.577-2.154-5.071-3.612-2.323-2.245-4.367-4.762-6.087-7.497-0.675-1.088-1.282-2.214-1.564-3.481-0.103-0.474-0.137-0.962-0.209-1.443z"></path>
<path fill="#727d57" style="fill: var(--color1, #727d57)" d="M36.405 6.136c1.275 0.038 2.54 0.245 3.761 0.615 0.823 0.224 1.629 0.509 2.445 0.75 0.194 0.055 0.368 0.165 0.501 0.317s0.219 0.339 0.247 0.538c0.212 0.855 0.104 1.758-0.303 2.539-0.481 0.921-1.036 1.802-1.564 2.697-0.81 1.372-1.682 2.712-2.415 4.125-0.454 0.925-0.815 1.893-1.079 2.889-0.427 1.496 0.795 2.902 2.374 2.791 1.099-0.072 2.147-0.491 2.992-1.197 0.119-0.113 0.26-0.202 0.413-0.261s0.317-0.087 0.481-0.083c0.164 0.004 0.326 0.041 0.476 0.108s0.286 0.163 0.399 0.282c0.355 0.31 0.634 0.698 0.814 1.133 0.177 0.464 0.090 0.756-0.316 1.047-0.505 0.323-1.069 0.541-1.661 0.641-1.417 0.318-2.821 0.186-4.208-0.169-1.069-0.274-2.116-0.601-3.171-0.904s-1.415-0.795-1.353-2.090c0.077-1.646 0.656-3.163 1.316-4.646 0.707-1.588 1.665-3.033 2.607-4.488 0.5-0.772 0.987-1.554 1.479-2.334 0.051-0.078 0.096-0.161 0.135-0.246 0.137-0.325 0.397-0.641 0.239-1.009-0.089-0.239-0.231-0.455-0.415-0.632s-0.405-0.311-0.647-0.391c-0.772-0.242-1.598-0.245-2.372-0.011-0.771 0.196-1.489 0.561-2.101 1.069-0.228 0.211-0.529 0.325-0.84 0.319s-0.607-0.132-0.827-0.352c-0.326-0.323-0.605-0.69-0.829-1.090-0.286-0.519-0.156-0.872 0.34-1.195 0.535-0.324 1.132-0.534 1.752-0.615 0.511-0.071 1.030-0.115 1.329-0.15z"></path>
<path fill="#727d57" style="fill: var(--color1, #727d57)" d="M70.931 11.477c-0.013 0.143-0.026 0.224-0.028 0.308-0.036 1.227-0.051 2.456-0.118 3.68-0.051 0.962-0.165 1.923-0.254 2.879 0 0.068-0.028 0.135-0.041 0.201-0.075 0.338-0.214 0.592-0.624 0.605-0.346 0.011-0.69 0.107-1.039 0.135s-0.427-0.026-0.494-0.372c-0.109-0.641-0.214-1.295-0.254-1.949-0.146-1.932-0.093-3.874 0.156-5.796 0.126-0.908 0.329-1.808 0.5-2.71 0.017-0.138 0.087-0.264 0.196-0.351s0.247-0.127 0.386-0.113c0.688 0 1.282 0.13 1.774 0.71 1.524 1.817 3.082 3.605 4.627 5.405 0.043 0.051 0.088 0.101 0.147 0.169 0-0.46 0-0.895 0-1.329-0.007-1.203 0.099-2.403 0.318-3.586 0.109-0.594 0.259-0.744 0.855-0.791 0.492-0.041 0.987-0.041 1.479 0 0.342 0.026 0.406 0.13 0.372 0.477-0.079 0.797-0.197 1.592-0.265 2.389-0.090 1.088-0.177 2.176-0.214 3.266-0.036 1.201 0 2.404-0.011 3.605 0 0.549-0.162 0.692-0.714 0.656-0.187-0.020-0.368-0.081-0.53-0.177s-0.301-0.226-0.408-0.381c-0.601-0.733-1.195-1.47-1.806-2.195-1.282-1.522-2.564-3.039-3.847-4.556l-0.165-0.177z"></path>
<path fill="#727d57" style="fill: var(--color1, #727d57)" d="M63.925 13.726c1.036 1.128 1.539 2.511 1.855 3.975 0.052 0.267 0.064 0.54 0.036 0.81-0.021 0.209-0.121 0.403-0.28 0.541s-0.364 0.211-0.575 0.202c-0.427 0.013-0.697-0.214-0.78-0.686-0.045-0.441-0.116-0.878-0.214-1.31-0.438-1.417-1.419-2.319-2.823-2.748-0.348-0.105-0.746-0.056-1.118-0.088-0.406-0.038-0.81-0.090-1.282-0.141 0.024 0.293 0.026 0.62 0.081 0.938 0.173 0.998 0.368 1.992 0.551 2.992 0.030 0.158 0.045 0.321 0.060 0.481 0.030 0.342-0.045 0.445-0.374 0.526-0.429 0.119-0.888 0.069-1.281-0.139s-0.693-0.559-0.837-0.98c-0.268-0.82-0.406-1.676-0.408-2.539-0.095-1.952-0.006-3.908 0.265-5.843 0.282-1.868 1.357-2.778 3.037-3.035 1.227-0.18 2.434-0.045 3.633 0.182 0.679 0.1 1.305 0.426 1.777 0.924s0.764 1.141 0.828 1.824c0.023 0.363-0.027 0.726-0.147 1.069-0.357 1.199-0.827 1.887-2.005 3.045zM58.873 12.030h0.024c0 0.214-0.015 0.427-0.030 0.641-0.026 0.397 0.041 0.506 0.442 0.502 0.602-0.003 1.204-0.042 1.802-0.117 0.868-0.115 1.52-0.519 1.71-1.458 0.166-0.837 0.212-1.693 0.135-2.543-0.038-0.234-0.141-0.453-0.299-0.63-0.179-0.227-0.422-0.395-0.697-0.484s-0.57-0.094-0.848-0.014c-0.878 0.233-1.923 0.776-2.013 2.077-0.053 0.673-0.15 1.342-0.224 2.026z"></path>
<path fill="#727d57" style="fill: var(--color1, #727d57)" d="M87.261 18.875c-1.017-0.038-2.028-0.171-3.019-0.398-1.381-0.316-2.249-1.186-2.789-2.438-0.566-1.308-0.596-2.671-0.323-4.041 0.455-2.283 1.947-3.701 4.003-4.606 0.247-0.086 0.508-0.123 0.77-0.109 1.136-0.007 2.27 0.086 3.389 0.28 1.106 0.18 2.1 0.776 2.779 1.667 1.055 1.334 1.581 2.834 1.425 4.539-0.084 0.887-0.49 1.652-0.971 2.389-0.921 1.411-2.26 2.197-3.847 2.59-0.469 0.078-0.942 0.121-1.417 0.126zM87.047 17.166l0.562-0.028c1.412-0.073 2.451-0.774 3.169-1.951 0.332-0.572 0.496-1.226 0.475-1.887 0-0.942-0.152-1.857-0.752-2.627-1.007-1.293-2.95-1.812-4.623-1.299-0.546 0.144-1.045 0.43-1.446 0.829s-0.688 0.897-0.834 1.443c-0.249 0.79-0.347 1.62-0.289 2.447 0.021 0.315 0.1 0.623 0.231 0.91 0.706 1.453 1.909 2.131 3.509 2.154l-0.002 0.009z"></path>
<path fill="#727d57" style="fill: var(--color1, #727d57)" d="M51.045 7.443c0.716 0.019 1.522 0.032 2.287 0.321 0.23 0.091 0.446 0.214 0.641 0.365 0.13 0.087 0.224 0.219 0.263 0.371s0.022 0.312-0.049 0.452c-0.026 0.064-0.045 0.13-0.070 0.192-0.192 0.492-0.457 0.671-0.985 0.622s-1.032-0.158-1.552-0.182c-0.595-0.028-1.191-0.021-1.784 0.023-0.673 0.053-1.143 0.449-1.466 1.028-0.336 0.635-0.537 1.333-0.592 2.049-0.090 0.889-0.092 1.774 0.282 2.614 0.323 0.763 0.92 1.377 1.674 1.722s1.609 0.394 2.397 0.14c0.322-0.112 0.649-0.207 0.981-0.284 0.172-0.046 0.355-0.023 0.51 0.064s0.27 0.231 0.321 0.402c0.154 0.395 0.068 0.855-0.267 1.024-0.352 0.19-0.728 0.33-1.118 0.417-1.090 0.263-2.222 0.308-3.33 0.135-1.765-0.312-2.979-1.246-3.548-2.992-0.573-1.68-0.641-3.492-0.197-5.21 0.398-1.526 1.378-2.445 2.847-2.902 0.894-0.264 1.823-0.389 2.755-0.37z"></path>
<path fill="#727d57" style="fill: var(--color1, #727d57)" d="M53.457 13.341c0.007 0.144-0.020 0.287-0.080 0.419s-0.149 0.246-0.262 0.336c-0.341 0.313-0.762 0.526-1.216 0.615-0.498 0.109-0.893-0.1-1.242-0.447-0.833-0.831-0.754-1.483 0.269-2.064 0.251-0.158 0.535-0.253 0.83-0.277s0.592 0.023 0.864 0.138c0.26 0.093 0.482 0.269 0.633 0.5s0.222 0.505 0.203 0.78z"></path>
<path fill="#727d57" style="fill: var(--color1, #727d57)" d="M85.59 13.196c0-0.489 0.313-0.812 0.592-1.156 0.049-0.059 0.103-0.113 0.162-0.162 0.555-0.513 0.975-0.551 1.609-0.137 0.427 0.276 0.799 0.592 0.908 1.12 0.045 0.175 0.044 0.359-0.001 0.534s-0.135 0.335-0.26 0.466c-0.551 0.571-1.214 0.88-2.032 0.695-0.596-0.133-0.981-0.673-0.978-1.359z"></path>
<path fill="#727d57" style="fill: var(--color1, #727d57)" d="M53.538 26.356c0 0.090-0.017 0.141-0.017 0.192-0.024 0.765-0.032 1.53-0.075 2.293-0.032 0.598-0.103 1.195-0.158 1.793-0.005 0.042-0.014 0.083-0.026 0.124-0.045 0.214-0.126 0.37-0.387 0.378-0.214 0-0.427 0.066-0.641 0.081s-0.274-0.015-0.308-0.229c-0.068-0.404-0.13-0.808-0.158-1.214-0.091-1.204-0.059-2.414 0.096-3.612 0.079-0.566 0.214-1.126 0.312-1.688 0.011-0.086 0.054-0.164 0.122-0.218s0.153-0.079 0.239-0.071c0.206-0.019 0.414 0.011 0.607 0.087s0.364 0.199 0.5 0.355c0.947 1.133 1.923 2.246 2.881 3.366 0.026 0.032 0.053 0.064 0.092 0.105 0-0.286 0-0.556 0-0.827-0.007-0.749 0.060-1.497 0.199-2.233 0.066-0.37 0.16-0.464 0.532-0.494 0.307-0.025 0.615-0.025 0.921 0 0.214 0.017 0.254 0.081 0.233 0.297-0.049 0.496-0.124 0.992-0.164 1.496-0.058 0.677-0.111 1.355-0.133 2.035-0.021 0.748 0 1.496 0 2.246 0 0.342-0.1 0.427-0.445 0.408-0.117-0.013-0.229-0.050-0.33-0.11s-0.187-0.141-0.254-0.238c-0.374-0.457-0.746-0.915-1.124-1.366-0.798-0.949-1.598-1.895-2.4-2.838l-0.115-0.12z"></path>
<path fill="#727d57" style="fill: var(--color1, #727d57)" d="M70.361 31.222c-0.633-0.024-1.263-0.106-1.881-0.246-0.855-0.197-1.4-0.739-1.738-1.52-0.326-0.798-0.396-1.678-0.201-2.518 0.284-1.421 1.214-2.306 2.494-2.87 0.155-0.055 0.319-0.079 0.483-0.073 0.708-0.003 1.414 0.055 2.111 0.175 0.69 0.11 1.311 0.482 1.733 1.039 0.327 0.389 0.574 0.84 0.727 1.325s0.207 0.996 0.16 1.503c-0.073 0.541-0.28 1.055-0.603 1.496-0.558 0.831-1.42 1.411-2.4 1.613-0.293 0.048-0.59 0.073-0.887 0.075zM62.428 31.277c-0.633-0.024-1.263-0.107-1.881-0.248-0.855-0.197-1.4-0.739-1.738-1.52-0.327-0.797-0.397-1.676-0.201-2.515 0.284-1.423 1.214-2.306 2.494-2.87 0.155-0.055 0.319-0.079 0.483-0.073 0.708-0.004 1.414 0.055 2.111 0.175 0.313 0.052 0.615 0.156 0.893 0.31 0.376 0.214 0.727 0.363 0.84 0.729 0.013 0.036 0.128 0.427-0.073 0.654-0.239 0.267-0.748 0.1-1.675-0.077-1.216-0.233-1.825-0.348-2.244-0.19-0.795 0.301-1.156 1.314-1.218 2.017-0.026 0.293-0.096 1.092 0.428 1.648 0.855 0.921 2.5 0.288 2.885 0.139 0.308-0.118 0.677-0.265 0.722-0.539 0.083-0.506-1.034-0.883-0.955-1.182 0.113-0.427 2.738-0.504 3.020 0.355 0.135 0.408-0.269 0.977-0.603 1.496-0.558 0.831-1.42 1.411-2.4 1.614-0.294 0.049-0.591 0.074-0.889 0.077zM70.231 30.151l0.351-0.017c0.406-0.015 0.8-0.134 1.146-0.347s0.63-0.511 0.826-0.867c0.207-0.356 0.309-0.764 0.295-1.175 0.035-0.583-0.13-1.161-0.468-1.637-0.626-0.804-1.838-1.128-2.879-0.808-0.341 0.089-0.652 0.267-0.901 0.516s-0.429 0.559-0.52 0.899c-0.155 0.492-0.216 1.009-0.18 1.524 0.013 0.196 0.061 0.388 0.143 0.566 0.438 0.91 1.188 1.334 2.186 1.346z"></path>
<path fill="#727d57" style="fill: var(--color1, #727d57)" d="M69.322 27.685c0-0.306 0.194-0.506 0.368-0.72 0.031-0.037 0.064-0.071 0.1-0.103 0.348-0.318 0.607-0.342 1.002-0.083 0.137 0.071 0.259 0.169 0.357 0.289s0.17 0.259 0.212 0.407c0.027 0.109 0.027 0.224-0.002 0.333s-0.085 0.209-0.163 0.291c-0.151 0.181-0.349 0.316-0.573 0.391s-0.463 0.088-0.693 0.036c-0.184-0.047-0.345-0.158-0.456-0.311s-0.165-0.341-0.153-0.531z"></path>
</symbol>
<symbol id="icon-ellipsis" viewBox="0 0 128 128">
<path fill="#DAD8D5" style="fill: var(--color1, #DAD8D5)" d="M39.9145 64C39.9145 67.1419 37.3469 69.6889 34.1795 69.6889C31.0121 69.6889 28.4444 67.1419 28.4444 64C28.4444 60.8581 31.0121 58.3111 34.1795 58.3111C37.3469 58.3111 39.9145 60.8581 39.9145 64Z"/>
<path fill="#DAD8D5" style="fill: var(--color1, #DAD8D5)" d="M69.7423 64C69.7423 67.1419 67.1746 69.6889 64.0073 69.6889C60.8399 69.6889 58.2722 67.1419 58.2722 64C58.2722 60.8581 60.8399 58.3111 64.0073 58.3111C67.1746 58.3111 69.7423 60.8581 69.7423 64Z"/>
<path fill="#DAD8D5" style="fill: var(--color1, #DAD8D5)" d="M99.5534 64C99.5534 67.1419 96.9857 69.6889 93.8184 69.6889C90.651 69.6889 88.0833 67.1419 88.0833 64C88.0833 60.8581 90.651 58.3111 93.8184 58.3111C96.9857 58.3111 99.5534 60.8581 99.5534 64Z"/>
</symbol>
<symbol id="icon-question" viewBox="0 0 27 27">
<path fill="#474745" style="fill: var(--color1, #474745)" d="M14.7656 18.9844C14.7656 19.2347 14.6914 19.4794 14.5523 19.6875C14.4133 19.8956 14.2156 20.0579 13.9843 20.1537C13.7531 20.2495 13.4986 20.2745 13.2531 20.2257C13.0076 20.1768 12.7821 20.0563 12.6051 19.8793C12.4281 19.7023 12.3075 19.4768 12.2587 19.2313C12.2099 18.9858 12.2349 18.7313 12.3307 18.5C12.4265 18.2688 12.5887 18.0711 12.7969 17.932C13.005 17.793 13.2497 17.7187 13.5 17.7187C13.8357 17.7187 14.1576 17.8521 14.3949 18.0894C14.6323 18.3268 14.7656 18.6487 14.7656 18.9844ZM13.5 7.59375C11.1734 7.59375 9.28125 9.29707 9.28125 11.3906V11.8125C9.28125 12.0363 9.37015 12.2509 9.52838 12.4091C9.68662 12.5674 9.90123 12.6562 10.125 12.6562C10.3488 12.6562 10.5634 12.5674 10.7216 12.4091C10.8799 12.2509 10.9688 12.0363 10.9688 11.8125V11.3906C10.9688 10.2305 12.1047 9.28125 13.5 9.28125C14.8954 9.28125 16.0313 10.2305 16.0313 11.3906C16.0313 12.5508 14.8954 13.5 13.5 13.5C13.2762 13.5 13.0616 13.5889 12.9034 13.7471C12.7451 13.9054 12.6563 14.12 12.6563 14.3437V15.1875C12.6563 15.4113 12.7451 15.6259 12.9034 15.7841C13.0616 15.9424 13.2762 16.0312 13.5 16.0312C13.7238 16.0312 13.9384 15.9424 14.0966 15.7841C14.2549 15.6259 14.3438 15.4113 14.3438 15.1875V15.1116C16.2675 14.7582 17.7188 13.2237 17.7188 11.3906C17.7188 9.29707 15.8266 7.59375 13.5 7.59375ZM24.4688 13.5C24.4688 15.6694 23.8254 17.7901 22.6202 19.5939C21.4149 21.3977 19.7018 22.8036 17.6976 23.6338C15.6933 24.464 13.4878 24.6812 11.3601 24.258C9.23238 23.8348 7.27793 22.7901 5.74393 21.2561C4.20992 19.7221 3.16525 17.7676 2.74202 15.6399C2.31878 13.5122 2.536 11.3067 3.3662 9.30244C4.1964 7.29816 5.60229 5.58508 7.40609 4.37982C9.2099 3.17456 11.3306 2.53125 13.5 2.53125C16.4082 2.53432 19.1963 3.69094 21.2527 5.74731C23.3091 7.80369 24.4657 10.5918 24.4688 13.5ZM22.7813 13.5C22.7813 11.6643 22.2369 9.86991 21.2171 8.34361C20.1972 6.81732 18.7477 5.62772 17.0518 4.92524C15.3559 4.22277 13.4897 4.03897 11.6893 4.39709C9.88894 4.75521 8.23518 5.63916 6.93717 6.93717C5.63916 8.23517 4.75521 9.88893 4.39709 11.6893C4.03897 13.4897 4.22277 15.3559 4.92525 17.0518C5.62772 18.7477 6.81732 20.1972 8.34362 21.2171C9.86991 22.2369 11.6643 22.7812 13.5 22.7812C15.9607 22.7785 18.3198 21.7997 20.0598 20.0598C21.7997 18.3198 22.7785 15.9607 22.7813 13.5Z"/>
</symbol>
<symbol id="icon-filter" viewBox="0 0 44 44" >
  <path fill="#727D57" style="fill: var(--color1, #727D57)" d="M12.8359 20.1673H31.1693V23.834H12.8359V20.1673ZM7.33594 12.834H36.6693V16.5007H7.33594V12.834ZM18.3359 27.5007H25.6693V31.1673H18.3359V27.5007Z"/>
</symbol>
</defs>
</svg>
